<?xml version="1.0" encoding="UTF-8"?>
<svg xmlns="http://www.w3.org/2000/svg" xmlns:xlink="http://www.w3.org/1999/xlink" width="665px" height="40px" viewBox="0 0 665 40" version="1.1">
<g id="surface1">
<rect x="0" y="0" width="665" height="40" style="fill:rgb(0.392157%,67.843137%,93.72549%);fill-opacity:1;stroke:none;"/>
<path style=" stroke:none;fill-rule:nonzero;fill:rgb(34.117647%,78.431373%,94.901961%);fill-opacity:1;" d="M 80 8.691406 L 81 8.800781 Z M 80 8.691406 "/>
<path style=" stroke:none;fill-rule:nonzero;fill:rgb(57.647059%,86.27451%,96.862745%);fill-opacity:1;" d="M 80 25.625 L 81 25.625 L 81 8.800781 L 106 8.800781 C 101.851562 8.609375 82.902344 8.429688 80.601562 8.949219 C 78.953125 9.324219 80 9.957031 80 10.363281 Z M 80 25.625 "/>
<path style=" stroke:none;fill-rule:nonzero;fill:rgb(99.607843%,100%,100%);fill-opacity:1;" d="M 81 8.800781 L 81 25.625 L 106 25.625 L 106 20.613281 C 106 19.683594 105.105469 18.6875 109 17.828125 C 118.339844 15.765625 146.261719 15.597656 156.003906 17.714844 C 165.726562 19.832031 160 23.308594 160 25.625 L 184 25.625 C 184 22.648438 191.621094 18.152344 175.210938 15.597656 C 161.4375 13.457031 117.839844 12.371094 107 15.488281 L 106 15.488281 L 106 8.800781 Z M 81 8.800781 "/>
<path style=" stroke:none;fill-rule:nonzero;fill:rgb(34.117647%,78.431373%,94.901961%);fill-opacity:1;" d="M 132 13.480469 L 132 13.59375 L 135 13.59375 Z M 132 13.480469 "/>
<path style=" stroke:none;fill-rule:nonzero;fill:rgb(57.647059%,86.27451%,96.862745%);fill-opacity:1;" d="M 135 13.480469 L 135 13.59375 L 140 13.59375 Z M 135 13.480469 "/>
<path style=" stroke:none;fill-rule:nonzero;fill:rgb(34.117647%,78.431373%,94.901961%);fill-opacity:1;" d="M 140 13.480469 L 140 13.59375 L 143 13.59375 L 140 13.480469 M 269 13.480469 L 269 13.59375 L 273 13.59375 Z M 269 13.480469 "/>
<path style=" stroke:none;fill-rule:nonzero;fill:rgb(57.647059%,86.27451%,96.862745%);fill-opacity:1;" d="M 273 13.480469 L 273 13.59375 L 279 13.59375 Z M 273 13.480469 "/>
<path style=" stroke:none;fill-rule:nonzero;fill:rgb(34.117647%,78.431373%,94.901961%);fill-opacity:1;" d="M 279 13.480469 L 279 13.59375 L 283 13.59375 L 279 13.480469 M 393 13.480469 L 393 13.59375 L 397 13.59375 Z M 393 13.480469 "/>
<path style=" stroke:none;fill-rule:nonzero;fill:rgb(57.647059%,86.27451%,96.862745%);fill-opacity:1;" d="M 397 13.480469 L 397 13.59375 L 402 13.59375 Z M 397 13.480469 "/>
<path style=" stroke:none;fill-rule:nonzero;fill:rgb(34.117647%,78.431373%,94.901961%);fill-opacity:1;" d="M 402 13.480469 L 402 13.59375 L 406 13.59375 L 402 13.480469 M 519 13.480469 L 519 13.59375 L 523 13.59375 Z M 519 13.480469 "/>
<path style=" stroke:none;fill-rule:nonzero;fill:rgb(57.647059%,86.27451%,96.862745%);fill-opacity:1;" d="M 523 13.480469 L 523 13.59375 L 529 13.59375 Z M 523 13.480469 "/>
<path style=" stroke:none;fill-rule:nonzero;fill:rgb(34.117647%,78.431373%,94.901961%);fill-opacity:1;" d="M 529 13.480469 L 529 13.59375 L 532 13.59375 L 529 13.480469 M 127 13.59375 L 128 13.703125 Z M 127 13.59375 "/>
<path style=" stroke:none;fill-rule:nonzero;fill:rgb(57.647059%,86.27451%,96.862745%);fill-opacity:1;" d="M 128.667969 13.628906 L 129.332031 13.667969 L 128.667969 13.628906 M 146.667969 13.628906 L 147.332031 13.667969 Z M 146.667969 13.628906 "/>
<path style=" stroke:none;fill-rule:nonzero;fill:rgb(34.117647%,78.431373%,94.901961%);fill-opacity:1;" d="M 148 13.59375 L 149 13.703125 Z M 148 13.59375 "/>
<path style=" stroke:none;fill-rule:nonzero;fill:rgb(0.784314%,48.627451%,65.882353%);fill-opacity:1;" d="M 266 25.960938 L 266 25.847656 C 206.007812 25.265625 203.675781 14.679688 263 13.703125 C 256.617188 13.40625 245.722656 13.539062 239 13.683594 C 202.394531 14.464844 183.601562 19.042969 200.371094 22.730469 C 213.589844 25.632812 240.089844 25.960938 266 25.960938 Z M 266 25.960938 "/>
<path style=" stroke:none;fill-rule:nonzero;fill:rgb(34.117647%,78.431373%,94.901961%);fill-opacity:1;" d="M 263.667969 13.628906 L 264.332031 13.667969 Z M 263.667969 13.628906 "/>
<path style=" stroke:none;fill-rule:nonzero;fill:rgb(57.647059%,86.27451%,96.862745%);fill-opacity:1;" d="M 265.667969 13.628906 L 266.332031 13.667969 Z M 265.667969 13.628906 "/>
<path style=" stroke:none;fill-rule:nonzero;fill:rgb(99.607843%,100%,100%);fill-opacity:1;" d="M 370 20.613281 C 362.074219 21.023438 347.894531 22.589844 344.742188 23.507812 C 342.5625 24.144531 344 25.066406 344 25.738281 L 344 30.640625 L 369 30.640625 L 369 23.957031 L 370 23.957031 C 380.894531 26.558594 418.535156 26.257812 435.996094 24.789062 C 459.5 22.8125 462.511719 18.6875 446.480469 16.042969 C 430.878906 13.472656 394.824219 12.886719 371 14.296875 C 357.871094 15.078125 347.664062 16.503906 337.828125 17.714844 C 326.699219 19.085938 314.636719 20.410156 302.984375 21.726562 C 285.960938 23.648438 256.164062 23.984375 246.546875 20.945312 C 232.28125 16.441406 296.0625 14.167969 306 18.941406 C 310.871094 18.558594 324.496094 17.292969 324.695312 16.601562 C 324.816406 16.175781 320.230469 15.664062 317.824219 15.378906 C 309.015625 14.335938 295.617188 13.75 283 13.613281 C 265.570312 13.425781 246.566406 13.949219 234.089844 15.378906 C 211.734375 17.949219 214.894531 22.824219 242 24.835938 C 253.472656 25.6875 265.613281 25.851562 279 25.847656 C 289.039062 25.847656 298.195312 25.578125 307 25.035156 C 317.445312 24.390625 325.078125 23.242188 333.089844 22.285156 C 347.65625 20.542969 361.910156 18.636719 378 17.066406 C 392.96875 15.609375 416.707031 16.011719 426.800781 17.9375 C 450.105469 22.390625 380.972656 25.757812 370 20.613281 Z M 370 20.613281 "/>
<path style=" stroke:none;fill-rule:nonzero;fill:rgb(57.647059%,86.27451%,96.862745%);fill-opacity:1;" d="M 285 13.59375 L 285 13.703125 L 288 13.703125 Z M 285 13.59375 "/>
<path style=" stroke:none;fill-rule:nonzero;fill:rgb(34.117647%,78.431373%,94.901961%);fill-opacity:1;" d="M 288 13.59375 L 289 13.703125 L 288 13.59375 M 386.667969 13.628906 L 387.332031 13.667969 Z M 386.667969 13.628906 "/>
<path style=" stroke:none;fill-rule:nonzero;fill:rgb(57.647059%,86.27451%,96.862745%);fill-opacity:1;" d="M 388.667969 13.628906 L 389.332031 13.667969 L 388.667969 13.628906 M 409.667969 13.628906 L 410.332031 13.667969 Z M 409.667969 13.628906 "/>
<path style=" stroke:none;fill-rule:nonzero;fill:rgb(34.117647%,78.431373%,94.901961%);fill-opacity:1;" d="M 411.667969 13.628906 L 412.332031 13.667969 L 411.667969 13.628906 M 513 13.59375 L 514 13.703125 Z M 513 13.59375 "/>
<path style=" stroke:none;fill-rule:nonzero;fill:rgb(57.647059%,86.27451%,96.862745%);fill-opacity:1;" d="M 514.667969 13.628906 L 515.332031 13.667969 Z M 514.667969 13.628906 "/>
<path style=" stroke:none;fill-rule:nonzero;fill:rgb(99.607843%,100%,100%);fill-opacity:1;" d="M 576 22.507812 C 567.796875 22.507812 558.015625 22.34375 550 22.539062 C 544.035156 22.6875 539.210938 23.167969 533 23.308594 C 516.21875 23.683594 499.984375 22.59375 496 20.722656 L 582 20.722656 C 582 18.46875 578.78125 16.347656 561.984375 14.851562 C 526.492188 11.6875 473.339844 14.410156 469.171875 19.277344 C 465.886719 23.109375 493.261719 25.847656 526 25.847656 C 546.054688 25.847656 569.738281 24.878906 576 22.507812 Z M 576 22.507812 "/>
<path style=" stroke:none;fill-rule:nonzero;fill:rgb(57.647059%,86.27451%,96.862745%);fill-opacity:1;" d="M 535.667969 13.628906 L 536.332031 13.667969 Z M 535.667969 13.628906 "/>
<path style=" stroke:none;fill-rule:nonzero;fill:rgb(34.117647%,78.431373%,94.901961%);fill-opacity:1;" d="M 537.667969 13.628906 L 538.332031 13.667969 L 537.667969 13.628906 M 124 13.703125 L 125 13.816406 Z M 124 13.703125 "/>
<path style=" stroke:none;fill-rule:nonzero;fill:rgb(57.647059%,86.27451%,96.862745%);fill-opacity:1;" d="M 125 13.703125 L 126 13.816406 L 125 13.703125 M 151 13.703125 L 152 13.816406 Z M 151 13.703125 "/>
<path style=" stroke:none;fill-rule:nonzero;fill:rgb(34.117647%,78.431373%,94.901961%);fill-opacity:1;" d="M 152 13.703125 L 153 13.816406 L 152 13.703125 M 259 13.703125 L 260 13.816406 Z M 259 13.703125 "/>
<path style=" stroke:none;fill-rule:nonzero;fill:rgb(57.647059%,86.27451%,96.862745%);fill-opacity:1;" d="M 260 13.703125 L 261 13.816406 L 260 13.703125 M 291 13.703125 L 292 13.816406 Z M 291 13.703125 "/>
<path style=" stroke:none;fill-rule:nonzero;fill:rgb(34.117647%,78.431373%,94.901961%);fill-opacity:1;" d="M 292 13.703125 L 293 13.816406 L 292 13.703125 M 382 13.703125 L 383 13.816406 Z M 382 13.703125 "/>
<path style=" stroke:none;fill-rule:nonzero;fill:rgb(57.647059%,86.27451%,96.862745%);fill-opacity:1;" d="M 383.667969 13.742188 L 384.332031 13.777344 L 383.667969 13.742188 M 415 13.703125 L 416 13.816406 Z M 415 13.703125 "/>
<path style=" stroke:none;fill-rule:nonzero;fill:rgb(34.117647%,78.431373%,94.901961%);fill-opacity:1;" d="M 416 13.703125 L 417 13.816406 L 416 13.703125 M 508.667969 13.742188 L 509.332031 13.777344 Z M 508.667969 13.742188 "/>
<path style=" stroke:none;fill-rule:nonzero;fill:rgb(57.647059%,86.27451%,96.862745%);fill-opacity:1;" d="M 510 13.703125 L 511 13.816406 L 510 13.703125 M 541 13.703125 L 542 13.816406 Z M 541 13.703125 "/>
<path style=" stroke:none;fill-rule:nonzero;fill:rgb(34.117647%,78.431373%,94.901961%);fill-opacity:1;" d="M 542 13.703125 L 543 13.816406 Z M 542 13.703125 "/>
<path style=" stroke:none;fill-rule:nonzero;fill:rgb(57.647059%,86.27451%,96.862745%);fill-opacity:1;" d="M 122 13.816406 L 123 13.925781 L 122 13.816406 M 154 13.816406 L 155 13.925781 Z M 154 13.816406 "/>
<path style=" stroke:none;fill-rule:nonzero;fill:rgb(34.117647%,78.431373%,94.901961%);fill-opacity:1;" d="M 155 13.816406 L 156 13.925781 Z M 155 13.816406 "/>
<path style=" stroke:none;fill-rule:nonzero;fill:rgb(57.647059%,86.27451%,96.862745%);fill-opacity:1;" d="M 256 13.816406 L 257 13.925781 L 256 13.816406 M 295 13.816406 L 296 13.925781 Z M 295 13.816406 "/>
<path style=" stroke:none;fill-rule:nonzero;fill:rgb(34.117647%,78.431373%,94.901961%);fill-opacity:1;" d="M 296 13.816406 L 297 13.925781 L 296 13.816406 M 379 13.816406 L 380 13.925781 Z M 379 13.816406 "/>
<path style=" stroke:none;fill-rule:nonzero;fill:rgb(57.647059%,86.27451%,96.862745%);fill-opacity:1;" d="M 380 13.816406 L 381 13.925781 Z M 380 13.816406 "/>
<path style=" stroke:none;fill-rule:nonzero;fill:rgb(34.117647%,78.431373%,94.901961%);fill-opacity:1;" d="M 419 13.816406 L 420 13.925781 L 419 13.816406 M 505 13.816406 L 506 13.925781 Z M 505 13.816406 "/>
<path style=" stroke:none;fill-rule:nonzero;fill:rgb(57.647059%,86.27451%,96.862745%);fill-opacity:1;" d="M 506 13.816406 L 507 13.925781 L 506 13.816406 M 544 13.816406 L 545 13.925781 Z M 544 13.816406 "/>
<path style=" stroke:none;fill-rule:nonzero;fill:rgb(34.117647%,78.431373%,94.901961%);fill-opacity:1;" d="M 545 13.816406 L 546 13.925781 Z M 545 13.816406 "/>
<path style=" stroke:none;fill-rule:nonzero;fill:rgb(57.647059%,86.27451%,96.862745%);fill-opacity:1;" d="M 120 13.925781 L 121 14.039062 Z M 120 13.925781 "/>
<path style=" stroke:none;fill-rule:nonzero;fill:rgb(34.117647%,78.431373%,94.901961%);fill-opacity:1;" d="M 157 13.925781 L 158 14.039062 L 157 13.925781 M 253 13.925781 L 254 14.039062 L 253 13.925781 M 298 13.925781 L 299 14.039062 L 298 13.925781 M 376 13.925781 L 377 14.039062 Z M 376 13.925781 "/>
<path style=" stroke:none;fill-rule:nonzero;fill:rgb(57.647059%,86.27451%,96.862745%);fill-opacity:1;" d="M 377 13.925781 L 378 14.039062 Z M 377 13.925781 "/>
<path style=" stroke:none;fill-rule:nonzero;fill:rgb(34.117647%,78.431373%,94.901961%);fill-opacity:1;" d="M 422 13.925781 L 423 14.039062 L 422 13.925781 M 502 13.925781 L 503 14.039062 Z M 502 13.925781 "/>
<path style=" stroke:none;fill-rule:nonzero;fill:rgb(57.647059%,86.27451%,96.862745%);fill-opacity:1;" d="M 503 13.925781 L 504 14.039062 L 503 13.925781 M 547 13.925781 L 548 14.039062 Z M 547 13.925781 "/>
<path style=" stroke:none;fill-rule:nonzero;fill:rgb(34.117647%,78.431373%,94.901961%);fill-opacity:1;" d="M 548 13.925781 L 549 14.039062 Z M 548 13.925781 "/>
<path style=" stroke:none;fill-rule:nonzero;fill:rgb(57.647059%,86.27451%,96.862745%);fill-opacity:1;" d="M 118 14.039062 L 119 14.152344 L 118 14.039062 M 159 14.039062 L 160 14.152344 Z M 159 14.039062 "/>
<path style=" stroke:none;fill-rule:nonzero;fill:rgb(0.392157%,67.843137%,93.72549%);fill-opacity:1;" d="M 250 14.039062 L 251 14.152344 Z M 250 14.039062 "/>
<path style=" stroke:none;fill-rule:nonzero;fill:rgb(57.647059%,86.27451%,96.862745%);fill-opacity:1;" d="M 251 14.039062 L 252 14.152344 L 251 14.039062 M 300 14.039062 L 301 14.152344 Z M 300 14.039062 "/>
<path style=" stroke:none;fill-rule:nonzero;fill:rgb(34.117647%,78.431373%,94.901961%);fill-opacity:1;" d="M 301 14.039062 L 302 14.152344 L 301 14.039062 M 374 14.039062 L 375 14.152344 Z M 374 14.039062 "/>
<path style=" stroke:none;fill-rule:nonzero;fill:rgb(57.647059%,86.27451%,96.862745%);fill-opacity:1;" d="M 424 14.039062 L 425 14.152344 Z M 424 14.039062 "/>
<path style=" stroke:none;fill-rule:nonzero;fill:rgb(34.117647%,78.431373%,94.901961%);fill-opacity:1;" d="M 500 14.039062 L 501 14.152344 Z M 500 14.039062 "/>
<path style=" stroke:none;fill-rule:nonzero;fill:rgb(57.647059%,86.27451%,96.862745%);fill-opacity:1;" d="M 501 14.039062 L 502 14.152344 L 501 14.039062 M 550 14.039062 L 551 14.152344 Z M 550 14.039062 "/>
<path style=" stroke:none;fill-rule:nonzero;fill:rgb(34.117647%,78.431373%,94.901961%);fill-opacity:1;" d="M 116 14.152344 L 117 14.261719 Z M 116 14.152344 "/>
<path style=" stroke:none;fill-rule:nonzero;fill:rgb(57.647059%,86.27451%,96.862745%);fill-opacity:1;" d="M 161 14.152344 L 162 14.261719 Z M 161 14.152344 "/>
<path style=" stroke:none;fill-rule:nonzero;fill:rgb(0.392157%,67.843137%,93.72549%);fill-opacity:1;" d="M 248 14.152344 L 249 14.261719 Z M 248 14.152344 "/>
<path style=" stroke:none;fill-rule:nonzero;fill:rgb(57.647059%,86.27451%,96.862745%);fill-opacity:1;" d="M 249 14.152344 L 250 14.261719 L 249 14.152344 M 302 14.152344 L 303 14.261719 Z M 302 14.152344 "/>
<path style=" stroke:none;fill-rule:nonzero;fill:rgb(34.117647%,78.431373%,94.901961%);fill-opacity:1;" d="M 303 14.152344 L 304 14.261719 Z M 303 14.152344 "/>
<path style=" stroke:none;fill-rule:nonzero;fill:rgb(57.647059%,86.27451%,96.862745%);fill-opacity:1;" d="M 372 14.152344 L 373 14.261719 L 372 14.152344 M 426 14.152344 L 427 14.261719 Z M 426 14.152344 "/>
<path style=" stroke:none;fill-rule:nonzero;fill:rgb(34.117647%,78.431373%,94.901961%);fill-opacity:1;" d="M 427 14.152344 L 428 14.261719 L 427 14.152344 M 498 14.152344 L 499 14.261719 Z M 498 14.152344 "/>
<path style=" stroke:none;fill-rule:nonzero;fill:rgb(57.647059%,86.27451%,96.862745%);fill-opacity:1;" d="M 552 14.152344 L 553 14.261719 L 552 14.152344 M 115 14.261719 L 116 14.375 Z M 115 14.261719 "/>
<path style=" stroke:none;fill-rule:nonzero;fill:rgb(34.117647%,78.431373%,94.901961%);fill-opacity:1;" d="M 163 14.261719 L 164 14.375 Z M 163 14.261719 "/>
<path style=" stroke:none;fill-rule:nonzero;fill:rgb(0.392157%,67.843137%,93.72549%);fill-opacity:1;" d="M 246 14.261719 L 247 14.375 Z M 246 14.261719 "/>
<path style=" stroke:none;fill-rule:nonzero;fill:rgb(57.647059%,86.27451%,96.862745%);fill-opacity:1;" d="M 247 14.261719 L 248 14.375 L 247 14.261719 M 304 14.261719 L 305 14.375 Z M 304 14.261719 "/>
<path style=" stroke:none;fill-rule:nonzero;fill:rgb(34.117647%,78.431373%,94.901961%);fill-opacity:1;" d="M 305 14.261719 L 306 14.375 Z M 305 14.261719 "/>
<path style=" stroke:none;fill-rule:nonzero;fill:rgb(57.647059%,86.27451%,96.862745%);fill-opacity:1;" d="M 370 14.261719 L 371 14.375 L 370 14.261719 M 428 14.261719 L 429 14.375 Z M 428 14.261719 "/>
<path style=" stroke:none;fill-rule:nonzero;fill:rgb(34.117647%,78.431373%,94.901961%);fill-opacity:1;" d="M 429 14.261719 L 430 14.375 L 429 14.261719 M 496 14.261719 L 497 14.375 Z M 496 14.261719 "/>
<path style=" stroke:none;fill-rule:nonzero;fill:rgb(57.647059%,86.27451%,96.862745%);fill-opacity:1;" d="M 554 14.261719 L 555 14.375 L 554 14.261719 M 164 14.375 L 165 14.484375 L 164 14.375 M 245 14.375 L 246 14.484375 L 245 14.375 M 306 14.375 L 307 14.484375 Z M 306 14.375 "/>
<path style=" stroke:none;fill-rule:nonzero;fill:rgb(34.117647%,78.431373%,94.901961%);fill-opacity:1;" d="M 368 14.375 L 369 14.484375 Z M 368 14.375 "/>
<path style=" stroke:none;fill-rule:nonzero;fill:rgb(57.647059%,86.27451%,96.862745%);fill-opacity:1;" d="M 430 14.375 L 431 14.484375 Z M 430 14.375 "/>
<path style=" stroke:none;fill-rule:nonzero;fill:rgb(34.117647%,78.431373%,94.901961%);fill-opacity:1;" d="M 494 14.375 L 495 14.484375 Z M 494 14.375 "/>
<path style=" stroke:none;fill-rule:nonzero;fill:rgb(57.647059%,86.27451%,96.862745%);fill-opacity:1;" d="M 556 14.375 L 557 14.484375 Z M 556 14.375 "/>
<path style=" stroke:none;fill-rule:nonzero;fill:rgb(34.117647%,78.431373%,94.901961%);fill-opacity:1;" d="M 112 14.484375 L 113 14.597656 L 112 14.484375 M 166 14.484375 L 167 14.597656 L 166 14.484375 M 243 14.484375 L 244 14.597656 L 243 14.484375 M 308 14.484375 L 309 14.597656 Z M 308 14.484375 "/>
<path style=" stroke:none;fill-rule:nonzero;fill:rgb(57.647059%,86.27451%,96.862745%);fill-opacity:1;" d="M 367 14.484375 L 368 14.597656 Z M 367 14.484375 "/>
<path style=" stroke:none;fill-rule:nonzero;fill:rgb(34.117647%,78.431373%,94.901961%);fill-opacity:1;" d="M 432 14.484375 L 433 14.597656 Z M 432 14.484375 "/>
<path style=" stroke:none;fill-rule:nonzero;fill:rgb(57.647059%,86.27451%,96.862745%);fill-opacity:1;" d="M 493 14.484375 L 494 14.597656 Z M 493 14.484375 "/>
<path style=" stroke:none;fill-rule:nonzero;fill:rgb(34.117647%,78.431373%,94.901961%);fill-opacity:1;" d="M 558 14.484375 L 559 14.597656 L 558 14.484375 M 111 14.597656 L 112 14.707031 L 111 14.597656 M 167 14.597656 L 168 14.707031 Z M 167 14.597656 "/>
<path style=" stroke:none;fill-rule:nonzero;fill:rgb(57.647059%,86.27451%,96.862745%);fill-opacity:1;" d="M 309 14.597656 L 310 14.707031 Z M 309 14.597656 "/>
<path style=" stroke:none;fill-rule:nonzero;fill:rgb(34.117647%,78.431373%,94.901961%);fill-opacity:1;" d="M 365 14.597656 L 366 14.707031 Z M 365 14.597656 "/>
<path style=" stroke:none;fill-rule:nonzero;fill:rgb(57.647059%,86.27451%,96.862745%);fill-opacity:1;" d="M 433 14.597656 L 434 14.707031 Z M 433 14.597656 "/>
<path style=" stroke:none;fill-rule:nonzero;fill:rgb(34.117647%,78.431373%,94.901961%);fill-opacity:1;" d="M 491 14.597656 L 492 14.707031 Z M 491 14.597656 "/>
<path style=" stroke:none;fill-rule:nonzero;fill:rgb(57.647059%,86.27451%,96.862745%);fill-opacity:1;" d="M 559 14.597656 L 560 14.707031 Z M 559 14.597656 "/>
<path style=" stroke:none;fill-rule:nonzero;fill:rgb(34.117647%,78.431373%,94.901961%);fill-opacity:1;" d="M 110 14.707031 L 111 14.820312 Z M 110 14.707031 "/>
<path style=" stroke:none;fill-rule:nonzero;fill:rgb(57.647059%,86.27451%,96.862745%);fill-opacity:1;" d="M 168 14.707031 L 169 14.820312 Z M 168 14.707031 "/>
<path style=" stroke:none;fill-rule:nonzero;fill:rgb(34.117647%,78.431373%,94.901961%);fill-opacity:1;" d="M 240 14.707031 L 241 14.820312 L 240 14.707031 M 311 14.707031 L 312 14.820312 Z M 311 14.707031 "/>
<path style=" stroke:none;fill-rule:nonzero;fill:rgb(57.647059%,86.27451%,96.862745%);fill-opacity:1;" d="M 364 14.707031 L 365 14.820312 Z M 364 14.707031 "/>
<path style=" stroke:none;fill-rule:nonzero;fill:rgb(34.117647%,78.431373%,94.901961%);fill-opacity:1;" d="M 435 14.707031 L 436 14.820312 Z M 435 14.707031 "/>
<path style=" stroke:none;fill-rule:nonzero;fill:rgb(57.647059%,86.27451%,96.862745%);fill-opacity:1;" d="M 490 14.707031 L 491 14.820312 Z M 490 14.707031 "/>
<path style=" stroke:none;fill-rule:nonzero;fill:rgb(34.117647%,78.431373%,94.901961%);fill-opacity:1;" d="M 561 14.707031 L 562 14.820312 Z M 561 14.707031 "/>
<path style=" stroke:none;fill-rule:nonzero;fill:rgb(57.647059%,86.27451%,96.862745%);fill-opacity:1;" d="M 169 14.820312 L 170 14.929688 L 169 14.820312 M 239 14.820312 L 240 14.929688 L 239 14.820312 M 312 14.820312 L 313 14.929688 L 312 14.820312 M 436 14.820312 L 437 14.929688 Z M 436 14.820312 "/>
<path style=" stroke:none;fill-rule:nonzero;fill:rgb(34.117647%,78.431373%,94.901961%);fill-opacity:1;" d="M 562 14.820312 L 563 14.929688 Z M 562 14.820312 "/>
<path style=" stroke:none;fill-rule:nonzero;fill:rgb(57.647059%,86.27451%,96.862745%);fill-opacity:1;" d="M 170 14.929688 L 171 15.042969 Z M 170 14.929688 "/>
<path style=" stroke:none;fill-rule:nonzero;fill:rgb(34.117647%,78.431373%,94.901961%);fill-opacity:1;" d="M 361 14.929688 L 362 15.042969 Z M 361 14.929688 "/>
<path style=" stroke:none;fill-rule:nonzero;fill:rgb(57.647059%,86.27451%,96.862745%);fill-opacity:1;" d="M 437 14.929688 L 438 15.042969 Z M 437 14.929688 "/>
<path style=" stroke:none;fill-rule:nonzero;fill:rgb(34.117647%,78.431373%,94.901961%);fill-opacity:1;" d="M 487 14.929688 L 488 15.042969 Z M 487 14.929688 "/>
<path style=" stroke:none;fill-rule:nonzero;fill:rgb(57.647059%,86.27451%,96.862745%);fill-opacity:1;" d="M 563 14.929688 L 564 15.042969 L 563 14.929688 M 108 15.042969 L 109 15.152344 L 108 15.042969 M 171 15.042969 L 172 15.152344 Z M 171 15.042969 "/>
<path style=" stroke:none;fill-rule:nonzero;fill:rgb(34.117647%,78.431373%,94.901961%);fill-opacity:1;" d="M 315 15.042969 L 316 15.152344 L 315 15.042969 M 360 15.042969 L 361 15.152344 L 360 15.042969 M 486 15.042969 L 487 15.152344 Z M 486 15.042969 "/>
<path style=" stroke:none;fill-rule:nonzero;fill:rgb(57.647059%,86.27451%,96.862745%);fill-opacity:1;" d="M 564 15.042969 L 565 15.152344 Z M 564 15.042969 "/>
<path style=" stroke:none;fill-rule:nonzero;fill:rgb(34.117647%,78.431373%,94.901961%);fill-opacity:1;" d="M 107 15.152344 L 108 15.265625 Z M 107 15.152344 "/>
<path style=" stroke:none;fill-rule:nonzero;fill:rgb(57.647059%,86.27451%,96.862745%);fill-opacity:1;" d="M 172 15.152344 L 173 15.265625 Z M 172 15.152344 "/>
<path style=" stroke:none;fill-rule:nonzero;fill:rgb(34.117647%,78.431373%,94.901961%);fill-opacity:1;" d="M 316 15.152344 L 317 15.265625 L 316 15.152344 M 359 15.152344 L 360 15.265625 L 359 15.152344 M 440 15.152344 L 441 15.265625 L 440 15.152344 M 485 15.152344 L 486 15.265625 Z M 485 15.152344 "/>
<path style=" stroke:none;fill-rule:nonzero;fill:rgb(57.647059%,86.27451%,96.862745%);fill-opacity:1;" d="M 565 15.152344 L 566 15.265625 Z M 565 15.152344 "/>
<path style=" stroke:none;fill-rule:nonzero;fill:rgb(34.117647%,78.431373%,94.901961%);fill-opacity:1;" d="M 106 15.265625 L 107 15.375 L 106 15.265625 M 173 15.265625 L 174 15.375 L 173 15.265625 M 317 15.265625 L 318 15.375 L 317 15.265625 M 358 15.265625 L 359 15.375 L 358 15.265625 M 441 15.265625 L 442 15.375 L 441 15.265625 M 484 15.265625 L 485 15.375 Z M 484 15.265625 "/>
<path style=" stroke:none;fill-rule:nonzero;fill:rgb(57.647059%,86.27451%,96.862745%);fill-opacity:1;" d="M 106 15.375 L 107 15.488281 Z M 106 15.375 "/>
<path style=" stroke:none;fill-rule:nonzero;fill:rgb(34.117647%,78.431373%,94.901961%);fill-opacity:1;" d="M 174 15.375 L 175 15.488281 L 174 15.375 M 318 15.375 L 319 15.488281 L 318 15.375 M 357 15.375 L 358 15.488281 L 357 15.375 M 483 15.375 L 484 15.488281 Z M 483 15.375 "/>
<path style=" stroke:none;fill-rule:nonzero;fill:rgb(57.647059%,86.27451%,96.862745%);fill-opacity:1;" d="M 567 15.375 L 568 15.488281 Z M 567 15.375 "/>
<path style=" stroke:none;fill-rule:nonzero;fill:rgb(34.117647%,78.431373%,94.901961%);fill-opacity:1;" d="M 356 15.488281 L 357 15.597656 L 356 15.488281 M 482 15.488281 L 483 15.597656 Z M 482 15.488281 "/>
<path style=" stroke:none;fill-rule:nonzero;fill:rgb(57.647059%,86.27451%,96.862745%);fill-opacity:1;" d="M 568 15.488281 L 569 15.597656 L 568 15.488281 M 175 15.597656 L 176 15.710938 Z M 175 15.597656 "/>
<path style=" stroke:none;fill-rule:nonzero;fill:rgb(34.117647%,78.431373%,94.901961%);fill-opacity:1;" d="M 355 15.597656 L 356 15.710938 L 355 15.597656 M 481 15.597656 L 482 15.710938 Z M 481 15.597656 "/>
<path style=" stroke:none;fill-rule:nonzero;fill:rgb(57.647059%,86.27451%,96.862745%);fill-opacity:1;" d="M 569 15.597656 L 570 15.710938 Z M 569 15.597656 "/>
<path style=" stroke:none;fill-rule:nonzero;fill:rgb(34.117647%,78.431373%,94.901961%);fill-opacity:1;" d="M 176 15.710938 L 177 15.820312 Z M 176 15.710938 "/>
<path style=" stroke:none;fill-rule:nonzero;fill:rgb(57.647059%,86.27451%,96.862745%);fill-opacity:1;" d="M 320 15.710938 L 321 15.820312 Z M 320 15.710938 "/>
<path style=" stroke:none;fill-rule:nonzero;fill:rgb(34.117647%,78.431373%,94.901961%);fill-opacity:1;" d="M 354 15.710938 L 355 15.820312 Z M 354 15.710938 "/>
<path style=" stroke:none;fill-rule:nonzero;fill:rgb(57.647059%,86.27451%,96.862745%);fill-opacity:1;" d="M 444 15.710938 L 445 15.820312 Z M 444 15.710938 "/>
<path style=" stroke:none;fill-rule:nonzero;fill:rgb(34.117647%,78.431373%,94.901961%);fill-opacity:1;" d="M 570 15.710938 L 571 15.820312 Z M 570 15.710938 "/>
<path style=" stroke:none;fill-rule:nonzero;fill:rgb(57.647059%,86.27451%,96.862745%);fill-opacity:1;" d="M 230 15.820312 L 231 15.933594 L 230 15.820312 M 321 15.820312 L 322 15.933594 Z M 321 15.820312 "/>
<path style=" stroke:none;fill-rule:nonzero;fill:rgb(34.117647%,78.431373%,94.901961%);fill-opacity:1;" d="M 353 15.820312 L 354 15.933594 L 353 15.820312 M 445 15.820312 L 446 15.933594 L 445 15.820312 M 571 15.820312 L 572 15.933594 Z M 571 15.820312 "/>
<path style=" stroke:none;fill-rule:nonzero;fill:rgb(57.647059%,86.27451%,96.862745%);fill-opacity:1;" d="M 177 15.933594 L 178 16.042969 Z M 177 15.933594 "/>
<path style=" stroke:none;fill-rule:nonzero;fill:rgb(34.117647%,78.431373%,94.901961%);fill-opacity:1;" d="M 229 15.933594 L 230 16.042969 L 229 15.933594 M 322 15.933594 L 323 16.042969 L 322 15.933594 M 352 15.933594 L 353 16.042969 L 352 15.933594 M 446 15.933594 L 447 16.042969 Z M 446 15.933594 "/>
<path style=" stroke:none;fill-rule:nonzero;fill:rgb(57.647059%,86.27451%,96.862745%);fill-opacity:1;" d="M 479 15.933594 L 480 16.042969 Z M 479 15.933594 "/>
<path style=" stroke:none;fill-rule:nonzero;fill:rgb(34.117647%,78.431373%,94.901961%);fill-opacity:1;" d="M 351 16.042969 L 352 16.15625 L 351 16.042969 M 478 16.042969 L 479 16.15625 Z M 478 16.042969 "/>
<path style=" stroke:none;fill-rule:nonzero;fill:rgb(57.647059%,86.27451%,96.862745%);fill-opacity:1;" d="M 525 16.042969 L 526 16.15625 L 525 16.042969 M 572 16.042969 L 573 16.15625 L 572 16.042969 M 128 16.15625 L 128 16.265625 L 137 16.265625 L 128 16.15625 M 178 16.15625 L 179 16.265625 L 178 16.15625 M 271 16.15625 L 271 16.265625 L 281 16.265625 L 271 16.15625 M 323 16.15625 L 324 16.265625 Z M 323 16.15625 "/>
<path style=" stroke:none;fill-rule:nonzero;fill:rgb(34.117647%,78.431373%,94.901961%);fill-opacity:1;" d="M 350 16.15625 L 351 16.265625 Z M 350 16.15625 "/>
<path style=" stroke:none;fill-rule:nonzero;fill:rgb(57.647059%,86.27451%,96.862745%);fill-opacity:1;" d="M 394 16.15625 L 394 16.265625 L 405 16.265625 L 394 16.15625 M 447 16.15625 L 448 16.265625 L 447 16.15625 M 517.667969 16.191406 L 518.332031 16.230469 Z M 517.667969 16.191406 "/>
<path style=" stroke:none;fill-rule:nonzero;fill:rgb(34.117647%,78.431373%,94.901961%);fill-opacity:1;" d="M 519.667969 16.191406 L 520.332031 16.230469 Z M 519.667969 16.191406 "/>
<path style=" stroke:none;fill-rule:nonzero;fill:rgb(0.392157%,67.843137%,93.72549%);fill-opacity:1;" d="M 497 18.382812 L 554 18.382812 C 548.777344 15.171875 505.246094 15.734375 497 18.382812 Z M 497 18.382812 "/>
<path style=" stroke:none;fill-rule:nonzero;fill:rgb(34.117647%,78.431373%,94.901961%);fill-opacity:1;" d="M 530.667969 16.191406 L 531.332031 16.230469 Z M 530.667969 16.191406 "/>
<path style=" stroke:none;fill-rule:nonzero;fill:rgb(57.647059%,86.27451%,96.862745%);fill-opacity:1;" d="M 532.667969 16.191406 L 533.332031 16.230469 Z M 532.667969 16.191406 "/>
<path style=" stroke:none;fill-rule:nonzero;fill:rgb(34.117647%,78.431373%,94.901961%);fill-opacity:1;" d="M 573 16.15625 L 574 16.265625 Z M 573 16.15625 "/>
<path style=" stroke:none;fill-rule:nonzero;fill:rgb(57.647059%,86.27451%,96.862745%);fill-opacity:1;" d="M 124 16.265625 L 125 16.378906 Z M 124 16.265625 "/>
<path style=" stroke:none;fill-rule:nonzero;fill:rgb(34.117647%,78.431373%,94.901961%);fill-opacity:1;" d="M 125 16.265625 L 126 16.378906 L 125 16.265625 M 139.667969 16.304688 L 140.332031 16.339844 Z M 139.667969 16.304688 "/>
<path style=" stroke:none;fill-rule:nonzero;fill:rgb(57.647059%,86.27451%,96.862745%);fill-opacity:1;" d="M 141 16.265625 L 142 16.378906 Z M 141 16.265625 "/>
<path style=" stroke:none;fill-rule:nonzero;fill:rgb(34.117647%,78.431373%,94.901961%);fill-opacity:1;" d="M 227 16.265625 L 228 16.378906 Z M 227 16.265625 "/>
<path style=" stroke:none;fill-rule:nonzero;fill:rgb(57.647059%,86.27451%,96.862745%);fill-opacity:1;" d="M 267 16.265625 L 268 16.378906 Z M 267 16.265625 "/>
<path style=" stroke:none;fill-rule:nonzero;fill:rgb(34.117647%,78.431373%,94.901961%);fill-opacity:1;" d="M 268 16.265625 L 269 16.378906 L 268 16.265625 M 283 16.265625 L 284 16.378906 Z M 283 16.265625 "/>
<path style=" stroke:none;fill-rule:nonzero;fill:rgb(57.647059%,86.27451%,96.862745%);fill-opacity:1;" d="M 284 16.265625 L 285 16.378906 Z M 284 16.265625 "/>
<path style=" stroke:none;fill-rule:nonzero;fill:rgb(34.117647%,78.431373%,94.901961%);fill-opacity:1;" d="M 324 16.265625 L 325 16.378906 L 324 16.265625 M 349 16.265625 L 350 16.378906 Z M 349 16.265625 "/>
<path style=" stroke:none;fill-rule:nonzero;fill:rgb(57.647059%,86.27451%,96.862745%);fill-opacity:1;" d="M 389.667969 16.304688 L 390.332031 16.339844 Z M 389.667969 16.304688 "/>
<path style=" stroke:none;fill-rule:nonzero;fill:rgb(34.117647%,78.431373%,94.901961%);fill-opacity:1;" d="M 391 16.265625 L 392 16.378906 L 391 16.265625 M 407 16.265625 L 408 16.378906 Z M 407 16.265625 "/>
<path style=" stroke:none;fill-rule:nonzero;fill:rgb(57.647059%,86.27451%,96.862745%);fill-opacity:1;" d="M 408 16.265625 L 409 16.378906 Z M 408 16.265625 "/>
<path style=" stroke:none;fill-rule:nonzero;fill:rgb(34.117647%,78.431373%,94.901961%);fill-opacity:1;" d="M 448 16.265625 L 449 16.378906 Z M 448 16.265625 "/>
<path style=" stroke:none;fill-rule:nonzero;fill:rgb(57.647059%,86.27451%,96.862745%);fill-opacity:1;" d="M 477 16.265625 L 478 16.378906 L 477 16.265625 M 514 16.265625 L 515 16.378906 Z M 514 16.265625 "/>
<path style=" stroke:none;fill-rule:nonzero;fill:rgb(34.117647%,78.431373%,94.901961%);fill-opacity:1;" d="M 515 16.265625 L 516 16.378906 L 515 16.265625 M 535.667969 16.304688 L 536.332031 16.339844 Z M 535.667969 16.304688 "/>
<path style=" stroke:none;fill-rule:nonzero;fill:rgb(57.647059%,86.27451%,96.862745%);fill-opacity:1;" d="M 121 16.378906 L 122 16.492188 Z M 121 16.378906 "/>
<path style=" stroke:none;fill-rule:nonzero;fill:rgb(34.117647%,78.431373%,94.901961%);fill-opacity:1;" d="M 122 16.378906 L 123 16.492188 L 122 16.378906 M 143 16.378906 L 144 16.492188 Z M 143 16.378906 "/>
<path style=" stroke:none;fill-rule:nonzero;fill:rgb(57.647059%,86.27451%,96.862745%);fill-opacity:1;" d="M 144 16.378906 L 145 16.492188 L 144 16.378906 M 179 16.378906 L 180 16.492188 Z M 179 16.378906 "/>
<path style=" stroke:none;fill-rule:nonzero;fill:rgb(34.117647%,78.431373%,94.901961%);fill-opacity:1;" d="M 264 16.378906 L 265 16.492188 L 264 16.378906 M 287 16.378906 L 288 16.492188 L 287 16.378906 M 348 16.378906 L 349 16.492188 Z M 348 16.378906 "/>
<path style=" stroke:none;fill-rule:nonzero;fill:rgb(57.647059%,86.27451%,96.862745%);fill-opacity:1;" d="M 386 16.378906 L 387 16.492188 Z M 386 16.378906 "/>
<path style=" stroke:none;fill-rule:nonzero;fill:rgb(34.117647%,78.431373%,94.901961%);fill-opacity:1;" d="M 387 16.378906 L 388 16.492188 Z M 387 16.378906 "/>
<path style=" stroke:none;fill-rule:nonzero;fill:rgb(57.647059%,86.27451%,96.862745%);fill-opacity:1;" d="M 411 16.378906 L 412 16.492188 L 411 16.378906 M 448 16.378906 L 449 16.492188 Z M 448 16.378906 "/>
<path style=" stroke:none;fill-rule:nonzero;fill:rgb(34.117647%,78.431373%,94.901961%);fill-opacity:1;" d="M 476 16.378906 L 477 16.492188 L 476 16.378906 M 512 16.378906 L 513 16.492188 L 512 16.378906 M 538 16.378906 L 539 16.492188 Z M 538 16.378906 "/>
<path style=" stroke:none;fill-rule:nonzero;fill:rgb(57.647059%,86.27451%,96.862745%);fill-opacity:1;" d="M 539 16.378906 L 540 16.492188 L 539 16.378906 M 574 16.378906 L 575 16.492188 L 574 16.378906 M 119 16.492188 L 120 16.601562 Z M 119 16.492188 "/>
<path style=" stroke:none;fill-rule:nonzero;fill:rgb(34.117647%,78.431373%,94.901961%);fill-opacity:1;" d="M 145 16.492188 L 146 16.601562 Z M 145 16.492188 "/>
<path style=" stroke:none;fill-rule:nonzero;fill:rgb(57.647059%,86.27451%,96.862745%);fill-opacity:1;" d="M 146 16.492188 L 147 16.601562 L 146 16.492188 M 226 16.492188 L 227 16.601562 L 226 16.492188 M 261 16.492188 L 262 16.601562 Z M 261 16.492188 "/>
<path style=" stroke:none;fill-rule:nonzero;fill:rgb(34.117647%,78.431373%,94.901961%);fill-opacity:1;" d="M 262 16.492188 L 263 16.601562 L 262 16.492188 M 289 16.492188 L 290 16.601562 Z M 289 16.492188 "/>
<path style=" stroke:none;fill-rule:nonzero;fill:rgb(57.647059%,86.27451%,96.862745%);fill-opacity:1;" d="M 290 16.492188 L 291 16.601562 L 290 16.492188 M 325 16.492188 L 326 16.601562 Z M 325 16.492188 "/>
<path style=" stroke:none;fill-rule:nonzero;fill:rgb(34.117647%,78.431373%,94.901961%);fill-opacity:1;" d="M 347 16.492188 L 348 16.601562 Z M 347 16.492188 "/>
<path style=" stroke:none;fill-rule:nonzero;fill:rgb(57.647059%,86.27451%,96.862745%);fill-opacity:1;" d="M 384 16.492188 L 385 16.601562 Z M 384 16.492188 "/>
<path style=" stroke:none;fill-rule:nonzero;fill:rgb(34.117647%,78.431373%,94.901961%);fill-opacity:1;" d="M 413 16.492188 L 414 16.601562 Z M 413 16.492188 "/>
<path style=" stroke:none;fill-rule:nonzero;fill:rgb(57.647059%,86.27451%,96.862745%);fill-opacity:1;" d="M 414 16.492188 L 415 16.601562 Z M 414 16.492188 "/>
<path style=" stroke:none;fill-rule:nonzero;fill:rgb(34.117647%,78.431373%,94.901961%);fill-opacity:1;" d="M 449 16.492188 L 450 16.601562 L 449 16.492188 M 510 16.492188 L 511 16.601562 Z M 510 16.492188 "/>
<path style=" stroke:none;fill-rule:nonzero;fill:rgb(57.647059%,86.27451%,96.862745%);fill-opacity:1;" d="M 541 16.492188 L 542 16.601562 L 541 16.492188 M 117 16.601562 L 118 16.714844 Z M 117 16.601562 "/>
<path style=" stroke:none;fill-rule:nonzero;fill:rgb(34.117647%,78.431373%,94.901961%);fill-opacity:1;" d="M 147 16.601562 L 148 16.714844 L 147 16.601562 M 180 16.601562 L 181 16.714844 Z M 180 16.601562 "/>
<path style=" stroke:none;fill-rule:nonzero;fill:rgb(0.392157%,67.843137%,93.72549%);fill-opacity:1;" d="M 225 16.601562 L 226 16.714844 Z M 225 16.601562 "/>
<path style=" stroke:none;fill-rule:nonzero;fill:rgb(57.647059%,86.27451%,96.862745%);fill-opacity:1;" d="M 259 16.601562 L 260 16.714844 Z M 259 16.601562 "/>
<path style=" stroke:none;fill-rule:nonzero;fill:rgb(34.117647%,78.431373%,94.901961%);fill-opacity:1;" d="M 260 16.601562 L 261 16.714844 L 260 16.601562 M 291 16.601562 L 292 16.714844 Z M 291 16.601562 "/>
<path style=" stroke:none;fill-rule:nonzero;fill:rgb(57.647059%,86.27451%,96.862745%);fill-opacity:1;" d="M 382 16.601562 L 383 16.714844 Z M 382 16.601562 "/>
<path style=" stroke:none;fill-rule:nonzero;fill:rgb(34.117647%,78.431373%,94.901961%);fill-opacity:1;" d="M 415 16.601562 L 416 16.714844 L 415 16.601562 M 475 16.601562 L 476 16.714844 L 475 16.601562 M 508 16.601562 L 509 16.714844 Z M 508 16.601562 "/>
<path style=" stroke:none;fill-rule:nonzero;fill:rgb(57.647059%,86.27451%,96.862745%);fill-opacity:1;" d="M 543 16.601562 L 544 16.714844 L 543 16.601562 M 575 16.601562 L 576 16.714844 Z M 575 16.601562 "/>
<path style=" stroke:none;fill-rule:nonzero;fill:rgb(34.117647%,78.431373%,94.901961%);fill-opacity:1;" d="M 116 16.714844 L 117 16.824219 Z M 116 16.714844 "/>
<path style=" stroke:none;fill-rule:nonzero;fill:rgb(57.647059%,86.27451%,96.862745%);fill-opacity:1;" d="M 149 16.714844 L 150 16.824219 L 149 16.714844 M 225 16.714844 L 226 16.824219 Z M 225 16.714844 "/>
<path style=" stroke:none;fill-rule:nonzero;fill:rgb(34.117647%,78.431373%,94.901961%);fill-opacity:1;" d="M 258 16.714844 L 259 16.824219 Z M 258 16.714844 "/>
<path style=" stroke:none;fill-rule:nonzero;fill:rgb(57.647059%,86.27451%,96.862745%);fill-opacity:1;" d="M 293 16.714844 L 294 16.824219 Z M 293 16.714844 "/>
<path style=" stroke:none;fill-rule:nonzero;fill:rgb(34.117647%,78.431373%,94.901961%);fill-opacity:1;" d="M 325 16.714844 L 326 16.824219 L 325 16.714844 M 381 16.714844 L 382 16.824219 Z M 381 16.714844 "/>
<path style=" stroke:none;fill-rule:nonzero;fill:rgb(57.647059%,86.27451%,96.862745%);fill-opacity:1;" d="M 417 16.714844 L 418 16.824219 Z M 417 16.714844 "/>
<path style=" stroke:none;fill-rule:nonzero;fill:rgb(34.117647%,78.431373%,94.901961%);fill-opacity:1;" d="M 450 16.714844 L 451 16.824219 L 450 16.714844 M 544 16.714844 L 545 16.824219 L 544 16.714844 M 115 16.824219 L 116 16.9375 Z M 115 16.824219 "/>
<path style=" stroke:none;fill-rule:nonzero;fill:rgb(57.647059%,86.27451%,96.862745%);fill-opacity:1;" d="M 150 16.824219 L 151 16.9375 Z M 150 16.824219 "/>
<path style=" stroke:none;fill-rule:nonzero;fill:rgb(0.392157%,67.843137%,93.72549%);fill-opacity:1;" d="M 224 16.824219 L 225 16.9375 Z M 224 16.824219 "/>
<path style=" stroke:none;fill-rule:nonzero;fill:rgb(34.117647%,78.431373%,94.901961%);fill-opacity:1;" d="M 294 16.824219 L 295 16.9375 L 294 16.824219 M 324 16.824219 L 325 16.9375 Z M 324 16.824219 "/>
<path style=" stroke:none;fill-rule:nonzero;fill:rgb(57.647059%,86.27451%,96.862745%);fill-opacity:1;" d="M 379 16.824219 L 380 16.9375 Z M 379 16.824219 "/>
<path style=" stroke:none;fill-rule:nonzero;fill:rgb(34.117647%,78.431373%,94.901961%);fill-opacity:1;" d="M 418 16.824219 L 419 16.9375 L 418 16.824219 M 474 16.824219 L 475 16.9375 Z M 474 16.824219 "/>
<path style=" stroke:none;fill-rule:nonzero;fill:rgb(57.647059%,86.27451%,96.862745%);fill-opacity:1;" d="M 505 16.824219 L 506 16.9375 Z M 505 16.824219 "/>
<path style=" stroke:none;fill-rule:nonzero;fill:rgb(34.117647%,78.431373%,94.901961%);fill-opacity:1;" d="M 545 16.824219 L 546 16.9375 Z M 545 16.824219 "/>
<path style=" stroke:none;fill-rule:nonzero;fill:rgb(57.647059%,86.27451%,96.862745%);fill-opacity:1;" d="M 576 16.824219 L 577 16.9375 Z M 576 16.824219 "/>
<path style=" stroke:none;fill-rule:nonzero;fill:rgb(34.117647%,78.431373%,94.901961%);fill-opacity:1;" d="M 114 16.9375 L 115 17.046875 L 114 16.9375 M 151 16.9375 L 152 17.046875 Z M 151 16.9375 "/>
<path style=" stroke:none;fill-rule:nonzero;fill:rgb(57.647059%,86.27451%,96.862745%);fill-opacity:1;" d="M 181 16.9375 L 182 17.046875 L 181 16.9375 M 224 16.9375 L 225 17.046875 L 224 16.9375 M 255 16.9375 L 256 17.046875 Z M 255 16.9375 "/>
<path style=" stroke:none;fill-rule:nonzero;fill:rgb(34.117647%,78.431373%,94.901961%);fill-opacity:1;" d="M 323 16.9375 L 324 17.046875 Z M 323 16.9375 "/>
<path style=" stroke:none;fill-rule:nonzero;fill:rgb(57.647059%,86.27451%,96.862745%);fill-opacity:1;" d="M 378 16.9375 L 379 17.046875 Z M 378 16.9375 "/>
<path style=" stroke:none;fill-rule:nonzero;fill:rgb(34.117647%,78.431373%,94.901961%);fill-opacity:1;" d="M 451 16.9375 L 452 17.046875 Z M 451 16.9375 "/>
<path style=" stroke:none;fill-rule:nonzero;fill:rgb(57.647059%,86.27451%,96.862745%);fill-opacity:1;" d="M 504 16.9375 L 505 17.046875 Z M 504 16.9375 "/>
<path style=" stroke:none;fill-rule:nonzero;fill:rgb(34.117647%,78.431373%,94.901961%);fill-opacity:1;" d="M 113 17.046875 L 114 17.160156 Z M 113 17.046875 "/>
<path style=" stroke:none;fill-rule:nonzero;fill:rgb(57.647059%,86.27451%,96.862745%);fill-opacity:1;" d="M 152 17.046875 L 153 17.160156 L 152 17.046875 M 254 17.046875 L 255 17.160156 L 254 17.046875 M 297 17.046875 L 298 17.160156 Z M 297 17.046875 "/>
<path style=" stroke:none;fill-rule:nonzero;fill:rgb(34.117647%,78.431373%,94.901961%);fill-opacity:1;" d="M 322 17.046875 L 323 17.160156 Z M 322 17.046875 "/>
<path style=" stroke:none;fill-rule:nonzero;fill:rgb(57.647059%,86.27451%,96.862745%);fill-opacity:1;" d="M 377 17.046875 L 378 17.160156 L 377 17.046875 M 421 17.046875 L 422 17.160156 Z M 421 17.046875 "/>
<path style=" stroke:none;fill-rule:nonzero;fill:rgb(34.117647%,78.431373%,94.901961%);fill-opacity:1;" d="M 473 17.046875 L 474 17.160156 L 473 17.046875 M 503 17.046875 L 504 17.160156 Z M 503 17.046875 "/>
<path style=" stroke:none;fill-rule:nonzero;fill:rgb(57.647059%,86.27451%,96.862745%);fill-opacity:1;" d="M 577 17.046875 L 578 17.160156 Z M 577 17.046875 "/>
<path style=" stroke:none;fill-rule:nonzero;fill:rgb(34.117647%,78.431373%,94.901961%);fill-opacity:1;" d="M 112 17.160156 L 113 17.269531 Z M 112 17.160156 "/>
<path style=" stroke:none;fill-rule:nonzero;fill:rgb(57.647059%,86.27451%,96.862745%);fill-opacity:1;" d="M 153 17.160156 L 154 17.269531 L 153 17.160156 M 223 17.160156 L 224 17.269531 Z M 223 17.160156 "/>
<path style=" stroke:none;fill-rule:nonzero;fill:rgb(34.117647%,78.431373%,94.901961%);fill-opacity:1;" d="M 253 17.160156 L 254 17.269531 Z M 253 17.160156 "/>
<path style=" stroke:none;fill-rule:nonzero;fill:rgb(57.647059%,86.27451%,96.862745%);fill-opacity:1;" d="M 298 17.160156 L 299 17.269531 Z M 298 17.160156 "/>
<path style=" stroke:none;fill-rule:nonzero;fill:rgb(34.117647%,78.431373%,94.901961%);fill-opacity:1;" d="M 321 17.160156 L 322 17.269531 Z M 321 17.160156 "/>
<path style=" stroke:none;fill-rule:nonzero;fill:rgb(57.647059%,86.27451%,96.862745%);fill-opacity:1;" d="M 376 17.160156 L 377 17.269531 L 376 17.160156 M 422 17.160156 L 423 17.269531 Z M 422 17.160156 "/>
<path style=" stroke:none;fill-rule:nonzero;fill:rgb(34.117647%,78.431373%,94.901961%);fill-opacity:1;" d="M 452 17.160156 L 453 17.269531 Z M 452 17.160156 "/>
<path style=" stroke:none;fill-rule:nonzero;fill:rgb(57.647059%,86.27451%,96.862745%);fill-opacity:1;" d="M 502 17.160156 L 503 17.269531 L 502 17.160156 M 111 17.269531 L 112 17.382812 Z M 111 17.269531 "/>
<path style=" stroke:none;fill-rule:nonzero;fill:rgb(34.117647%,78.431373%,94.901961%);fill-opacity:1;" d="M 182 17.269531 L 183 17.382812 Z M 182 17.269531 "/>
<path style=" stroke:none;fill-rule:nonzero;fill:rgb(57.647059%,86.27451%,96.862745%);fill-opacity:1;" d="M 252 17.269531 L 253 17.382812 Z M 252 17.269531 "/>
<path style=" stroke:none;fill-rule:nonzero;fill:rgb(34.117647%,78.431373%,94.901961%);fill-opacity:1;" d="M 320 17.269531 L 321 17.382812 Z M 320 17.269531 "/>
<path style=" stroke:none;fill-rule:nonzero;fill:rgb(57.647059%,86.27451%,96.862745%);fill-opacity:1;" d="M 375 17.269531 L 376 17.382812 L 375 17.269531 M 452 17.269531 L 453 17.382812 Z M 452 17.269531 "/>
<path style=" stroke:none;fill-rule:nonzero;fill:rgb(34.117647%,78.431373%,94.901961%);fill-opacity:1;" d="M 472 17.269531 L 473 17.382812 Z M 472 17.269531 "/>
<path style=" stroke:none;fill-rule:nonzero;fill:rgb(57.647059%,86.27451%,96.862745%);fill-opacity:1;" d="M 501 17.269531 L 502 17.382812 Z M 501 17.269531 "/>
<path style=" stroke:none;fill-rule:nonzero;fill:rgb(34.117647%,78.431373%,94.901961%);fill-opacity:1;" d="M 549 17.269531 L 550 17.382812 L 549 17.269531 M 578 17.269531 L 579 17.382812 L 578 17.269531 M 154 17.382812 L 155 17.492188 Z M 154 17.382812 "/>
<path style=" stroke:none;fill-rule:nonzero;fill:rgb(57.647059%,86.27451%,96.862745%);fill-opacity:1;" d="M 182 17.382812 L 183 17.492188 Z M 182 17.382812 "/>
<path style=" stroke:none;fill-rule:nonzero;fill:rgb(34.117647%,78.431373%,94.901961%);fill-opacity:1;" d="M 222 17.382812 L 223 17.492188 Z M 222 17.382812 "/>
<path style=" stroke:none;fill-rule:nonzero;fill:rgb(57.647059%,86.27451%,96.862745%);fill-opacity:1;" d="M 251 17.382812 L 252 17.492188 Z M 251 17.382812 "/>
<path style=" stroke:none;fill-rule:nonzero;fill:rgb(34.117647%,78.431373%,94.901961%);fill-opacity:1;" d="M 319 17.382812 L 320 17.492188 Z M 319 17.382812 "/>
<path style=" stroke:none;fill-rule:nonzero;fill:rgb(57.647059%,86.27451%,96.862745%);fill-opacity:1;" d="M 374 17.382812 L 375 17.492188 L 374 17.382812 M 472 17.382812 L 473 17.492188 Z M 472 17.382812 "/>
<path style=" stroke:none;fill-rule:nonzero;fill:rgb(34.117647%,78.431373%,94.901961%);fill-opacity:1;" d="M 550 17.382812 L 551 17.492188 Z M 550 17.382812 "/>
<path style=" stroke:none;fill-rule:nonzero;fill:rgb(57.647059%,86.27451%,96.862745%);fill-opacity:1;" d="M 578 17.382812 L 579 17.492188 Z M 578 17.382812 "/>
<path style=" stroke:none;fill-rule:nonzero;fill:rgb(34.117647%,78.431373%,94.901961%);fill-opacity:1;" d="M 110 17.492188 L 111 17.605469 Z M 110 17.492188 "/>
<path style=" stroke:none;fill-rule:nonzero;fill:rgb(57.647059%,86.27451%,96.862745%);fill-opacity:1;" d="M 155 17.492188 L 156 17.605469 L 155 17.492188 M 222 17.492188 L 223 17.605469 Z M 222 17.492188 "/>
<path style=" stroke:none;fill-rule:nonzero;fill:rgb(34.117647%,78.431373%,94.901961%);fill-opacity:1;" d="M 300 17.492188 L 301 17.605469 Z M 300 17.492188 "/>
<path style=" stroke:none;fill-rule:nonzero;fill:rgb(57.647059%,86.27451%,96.862745%);fill-opacity:1;" d="M 318 17.492188 L 319 17.605469 L 318 17.492188 M 339 17.492188 L 340 17.605469 Z M 339 17.492188 "/>
<path style=" stroke:none;fill-rule:nonzero;fill:rgb(34.117647%,78.431373%,94.901961%);fill-opacity:1;" d="M 373 17.492188 L 374 17.605469 L 373 17.492188 M 424 17.492188 L 425 17.605469 L 424 17.492188 M 453 17.492188 L 454 17.605469 L 453 17.492188 M 500 17.492188 L 501 17.605469 Z M 500 17.492188 "/>
<path style=" stroke:none;fill-rule:nonzero;fill:rgb(57.647059%,86.27451%,96.862745%);fill-opacity:1;" d="M 551 17.492188 L 552 17.605469 L 551 17.492188 M 109 17.605469 L 110 17.714844 Z M 109 17.605469 "/>
<path style=" stroke:none;fill-rule:nonzero;fill:rgb(34.117647%,78.431373%,94.901961%);fill-opacity:1;" d="M 183.332031 17.679688 L 183.667969 17.753906 L 183.332031 17.679688 M 250 17.605469 L 251 17.714844 Z M 250 17.605469 "/>
<path style=" stroke:none;fill-rule:nonzero;fill:rgb(57.647059%,86.27451%,96.862745%);fill-opacity:1;" d="M 301 17.605469 L 302 17.714844 L 301 17.605469 M 317 17.605469 L 318 17.714844 L 317 17.605469 M 338 17.605469 L 339 17.714844 Z M 338 17.605469 "/>
<path style=" stroke:none;fill-rule:nonzero;fill:rgb(34.117647%,78.431373%,94.901961%);fill-opacity:1;" d="M 372 17.605469 L 373 17.714844 Z M 372 17.605469 "/>
<path style=" stroke:none;fill-rule:nonzero;fill:rgb(57.647059%,86.27451%,96.862745%);fill-opacity:1;" d="M 425 17.605469 L 426 17.714844 L 425 17.605469 M 453 17.605469 L 454 17.714844 Z M 453 17.605469 "/>
<path style=" stroke:none;fill-rule:nonzero;fill:rgb(34.117647%,78.431373%,94.901961%);fill-opacity:1;" d="M 471 17.605469 L 472 17.714844 Z M 471 17.605469 "/>
<path style=" stroke:none;fill-rule:nonzero;fill:rgb(57.647059%,86.27451%,96.862745%);fill-opacity:1;" d="M 499 17.605469 L 500 17.714844 Z M 499 17.605469 "/>
<path style=" stroke:none;fill-rule:nonzero;fill:rgb(34.117647%,78.431373%,94.901961%);fill-opacity:1;" d="M 579 17.605469 L 580 17.714844 L 579 17.605469 M 109 17.714844 L 110 17.828125 Z M 109 17.714844 "/>
<path style=" stroke:none;fill-rule:nonzero;fill:rgb(57.647059%,86.27451%,96.862745%);fill-opacity:1;" d="M 156 17.714844 L 157 17.828125 Z M 156 17.714844 "/>
<path style=" stroke:none;fill-rule:nonzero;fill:rgb(34.117647%,78.431373%,94.901961%);fill-opacity:1;" d="M 221 17.714844 L 222 17.828125 Z M 221 17.714844 "/>
<path style=" stroke:none;fill-rule:nonzero;fill:rgb(57.647059%,86.27451%,96.862745%);fill-opacity:1;" d="M 249 17.714844 L 250 17.828125 L 249 17.714844 M 316 17.714844 L 317 17.828125 L 316 17.714844 M 337 17.714844 L 338 17.828125 Z M 337 17.714844 "/>
<path style=" stroke:none;fill-rule:nonzero;fill:rgb(34.117647%,78.431373%,94.901961%);fill-opacity:1;" d="M 371 17.714844 L 372 17.828125 Z M 371 17.714844 "/>
<path style=" stroke:none;fill-rule:nonzero;fill:rgb(57.647059%,86.27451%,96.862745%);fill-opacity:1;" d="M 471 17.714844 L 472 17.828125 L 471 17.714844 M 552 17.714844 L 553 17.828125 L 552 17.714844 M 579 17.714844 L 580 17.828125 L 579 17.714844 M 108 17.828125 L 109 17.9375 Z M 108 17.828125 "/>
<path style=" stroke:none;fill-rule:nonzero;fill:rgb(34.117647%,78.431373%,94.901961%);fill-opacity:1;" d="M 156 17.828125 L 157 17.9375 Z M 156 17.828125 "/>
<path style=" stroke:none;fill-rule:nonzero;fill:rgb(57.647059%,86.27451%,96.862745%);fill-opacity:1;" d="M 183.332031 17.902344 L 183.667969 17.976562 L 183.332031 17.902344 M 221 17.828125 L 222 17.9375 Z M 221 17.828125 "/>
<path style=" stroke:none;fill-rule:nonzero;fill:rgb(34.117647%,78.431373%,94.901961%);fill-opacity:1;" d="M 302 17.828125 L 303 17.9375 Z M 302 17.828125 "/>
<path style=" stroke:none;fill-rule:nonzero;fill:rgb(57.647059%,86.27451%,96.862745%);fill-opacity:1;" d="M 315 17.828125 L 316 17.9375 L 315 17.828125 M 336 17.828125 L 337 17.9375 Z M 336 17.828125 "/>
<path style=" stroke:none;fill-rule:nonzero;fill:rgb(34.117647%,78.431373%,94.901961%);fill-opacity:1;" d="M 370 17.828125 L 371 17.9375 L 370 17.828125 M 426 17.828125 L 427 17.9375 L 426 17.828125 M 454 17.828125 L 455 17.9375 Z M 454 17.828125 "/>
<path style=" stroke:none;fill-rule:nonzero;fill:rgb(57.647059%,86.27451%,96.862745%);fill-opacity:1;" d="M 498 17.828125 L 499 17.9375 Z M 498 17.828125 "/>
<path style=" stroke:none;fill-rule:nonzero;fill:rgb(34.117647%,78.431373%,94.901961%);fill-opacity:1;" d="M 108 17.9375 L 109 18.050781 Z M 108 17.9375 "/>
<path style=" stroke:none;fill-rule:nonzero;fill:rgb(57.647059%,86.27451%,96.862745%);fill-opacity:1;" d="M 248 17.9375 L 249 18.050781 L 248 17.9375 M 303 17.9375 L 304 18.050781 L 303 17.9375 M 314 17.9375 L 315 18.050781 L 314 17.9375 M 335 17.9375 L 336 18.050781 Z M 335 17.9375 "/>
<path style=" stroke:none;fill-rule:nonzero;fill:rgb(34.117647%,78.431373%,94.901961%);fill-opacity:1;" d="M 369 17.9375 L 370 18.050781 Z M 369 17.9375 "/>
<path style=" stroke:none;fill-rule:nonzero;fill:rgb(57.647059%,86.27451%,96.862745%);fill-opacity:1;" d="M 427 17.9375 L 428 18.050781 L 427 17.9375 M 454 17.9375 L 455 18.050781 L 454 17.9375 M 553 17.9375 L 554 18.050781 Z M 553 17.9375 "/>
<path style=" stroke:none;fill-rule:nonzero;fill:rgb(34.117647%,78.431373%,94.901961%);fill-opacity:1;" d="M 580 17.9375 L 581 18.050781 Z M 580 17.9375 "/>
<path style=" stroke:none;fill-rule:nonzero;fill:rgb(57.647059%,86.27451%,96.862745%);fill-opacity:1;" d="M 157 18.050781 L 158 18.160156 Z M 157 18.050781 "/>
<path style=" stroke:none;fill-rule:nonzero;fill:rgb(34.117647%,78.431373%,94.901961%);fill-opacity:1;" d="M 303 18.050781 L 304 18.160156 Z M 303 18.050781 "/>
<path style=" stroke:none;fill-rule:nonzero;fill:rgb(57.647059%,86.27451%,96.862745%);fill-opacity:1;" d="M 334 18.050781 L 335 18.160156 Z M 334 18.050781 "/>
<path style=" stroke:none;fill-rule:nonzero;fill:rgb(34.117647%,78.431373%,94.901961%);fill-opacity:1;" d="M 368 18.050781 L 369 18.160156 L 368 18.050781 M 427 18.050781 L 428 18.160156 L 427 18.050781 M 470 18.050781 L 471 18.160156 Z M 470 18.050781 "/>
<path style=" stroke:none;fill-rule:nonzero;fill:rgb(57.647059%,86.27451%,96.862745%);fill-opacity:1;" d="M 497 18.050781 L 498 18.160156 L 497 18.050781 M 580.332031 18.125 L 580.667969 18.199219 L 580.332031 18.125 M 107 18.160156 L 108 18.273438 Z M 107 18.160156 "/>
<path style=" stroke:none;fill-rule:nonzero;fill:rgb(34.117647%,78.431373%,94.901961%);fill-opacity:1;" d="M 157 18.160156 L 158 18.273438 L 157 18.160156 M 220 18.160156 L 221 18.273438 Z M 220 18.160156 "/>
<path style=" stroke:none;fill-rule:nonzero;fill:rgb(57.647059%,86.27451%,96.862745%);fill-opacity:1;" d="M 247 18.160156 L 248 18.273438 L 247 18.160156 M 333 18.160156 L 334 18.273438 Z M 333 18.160156 "/>
<path style=" stroke:none;fill-rule:nonzero;fill:rgb(34.117647%,78.431373%,94.901961%);fill-opacity:1;" d="M 367 18.160156 L 368 18.273438 Z M 367 18.160156 "/>
<path style=" stroke:none;fill-rule:nonzero;fill:rgb(57.647059%,86.27451%,96.862745%);fill-opacity:1;" d="M 470 18.160156 L 471 18.273438 Z M 470 18.160156 "/>
<path style=" stroke:none;fill-rule:nonzero;fill:rgb(34.117647%,78.431373%,94.901961%);fill-opacity:1;" d="M 497 18.160156 L 498 18.273438 Z M 497 18.160156 "/>
<path style=" stroke:none;fill-rule:nonzero;fill:rgb(57.647059%,86.27451%,96.862745%);fill-opacity:1;" d="M 554 18.160156 L 555 18.273438 Z M 554 18.160156 "/>
<path style=" stroke:none;fill-rule:nonzero;fill:rgb(34.117647%,78.431373%,94.901961%);fill-opacity:1;" d="M 107 18.273438 L 108 18.382812 L 107 18.273438 M 184.332031 18.347656 L 184.667969 18.421875 Z M 184.332031 18.347656 "/>
<path style=" stroke:none;fill-rule:nonzero;fill:rgb(57.647059%,86.27451%,96.862745%);fill-opacity:1;" d="M 220 18.273438 L 221 18.382812 Z M 220 18.273438 "/>
<path style=" stroke:none;fill-rule:nonzero;fill:rgb(34.117647%,78.431373%,94.901961%);fill-opacity:1;" d="M 247 18.273438 L 248 18.382812 L 247 18.273438 M 304 18.273438 L 305 18.382812 Z M 304 18.273438 "/>
<path style=" stroke:none;fill-rule:nonzero;fill:rgb(57.647059%,86.27451%,96.862745%);fill-opacity:1;" d="M 332 18.273438 L 333 18.382812 L 332 18.273438 M 366 18.273438 L 367 18.382812 Z M 366 18.273438 "/>
<path style=" stroke:none;fill-rule:nonzero;fill:rgb(34.117647%,78.431373%,94.901961%);fill-opacity:1;" d="M 428 18.273438 L 429 18.382812 L 428 18.273438 M 455 18.273438 L 456 18.382812 L 455 18.273438 M 554 18.273438 C 537.347656 18.820312 514.390625 18.382812 497 18.382812 L 497 18.496094 L 541 18.496094 Z M 554 18.273438 "/>
<path style=" stroke:none;fill-rule:nonzero;fill:rgb(57.647059%,86.27451%,96.862745%);fill-opacity:1;" d="M 158.332031 18.457031 L 158.667969 18.53125 L 158.332031 18.457031 M 331 18.382812 L 332 18.496094 L 331 18.382812 M 365 18.382812 L 366 18.496094 L 365 18.382812 M 455.332031 18.457031 L 455.667969 18.53125 L 455.332031 18.457031 M 496 18.382812 L 497 18.496094 Z M 496 18.382812 "/>
<path style=" stroke:none;fill-rule:nonzero;fill:rgb(34.117647%,78.431373%,94.901961%);fill-opacity:1;" d="M 581.332031 18.457031 L 581.667969 18.53125 Z M 581.332031 18.457031 "/>
<path style=" stroke:none;fill-rule:nonzero;fill:rgb(57.647059%,86.27451%,96.862745%);fill-opacity:1;" d="M 184 18.496094 L 184 25.625 L 185 25.625 L 185 20.722656 L 184 18.496094 M 246 18.496094 L 247 18.605469 Z M 246 18.496094 "/>
<path style=" stroke:none;fill-rule:nonzero;fill:rgb(34.117647%,78.431373%,94.901961%);fill-opacity:1;" d="M 330 18.496094 L 331 18.605469 Z M 330 18.496094 "/>
<path style=" stroke:none;fill-rule:nonzero;fill:rgb(57.647059%,86.27451%,96.862745%);fill-opacity:1;" d="M 364 18.496094 L 365 18.605469 L 364 18.496094 M 429 18.496094 L 430 18.605469 Z M 429 18.496094 "/>
<path style=" stroke:none;fill-rule:nonzero;fill:rgb(34.117647%,78.431373%,94.901961%);fill-opacity:1;" d="M 469.332031 18.570312 L 469.667969 18.644531 Z M 469.332031 18.570312 "/>
<path style=" stroke:none;fill-rule:nonzero;fill:rgb(57.647059%,86.27451%,96.862745%);fill-opacity:1;" d="M 106 18.605469 L 106 18.941406 L 107 18.941406 Z M 106 18.605469 "/>
<path style=" stroke:none;fill-rule:nonzero;fill:rgb(34.117647%,78.431373%,94.901961%);fill-opacity:1;" d="M 158.332031 18.679688 L 158.667969 18.753906 Z M 158.332031 18.679688 "/>
<path style=" stroke:none;fill-rule:nonzero;fill:rgb(0.392157%,67.843137%,93.72549%);fill-opacity:1;" d="M 219 18.605469 L 220 18.71875 Z M 219 18.605469 "/>
<path style=" stroke:none;fill-rule:nonzero;fill:rgb(34.117647%,78.431373%,94.901961%);fill-opacity:1;" d="M 246 18.605469 L 247 18.71875 Z M 246 18.605469 "/>
<path style=" stroke:none;fill-rule:nonzero;fill:rgb(57.647059%,86.27451%,96.862745%);fill-opacity:1;" d="M 305 18.605469 L 306 18.71875 Z M 305 18.605469 "/>
<path style=" stroke:none;fill-rule:nonzero;fill:rgb(34.117647%,78.431373%,94.901961%);fill-opacity:1;" d="M 309 18.605469 L 310 18.71875 L 309 18.605469 M 329 18.605469 L 330 18.71875 Z M 329 18.605469 "/>
<path style=" stroke:none;fill-rule:nonzero;fill:rgb(57.647059%,86.27451%,96.862745%);fill-opacity:1;" d="M 363 18.605469 L 364 18.71875 Z M 363 18.605469 "/>
<path style=" stroke:none;fill-rule:nonzero;fill:rgb(34.117647%,78.431373%,94.901961%);fill-opacity:1;" d="M 429 18.605469 L 430 18.71875 Z M 429 18.605469 "/>
<path style=" stroke:none;fill-rule:nonzero;fill:rgb(57.647059%,86.27451%,96.862745%);fill-opacity:1;" d="M 581 18.605469 L 581 18.941406 L 582 18.941406 Z M 581 18.605469 "/>
<path style=" stroke:none;fill-rule:nonzero;fill:rgb(34.117647%,78.431373%,94.901961%);fill-opacity:1;" d="M 219.332031 18.792969 L 219.667969 18.867188 L 219.332031 18.792969 M 305 18.71875 L 306 18.832031 L 305 18.71875 M 308 18.71875 L 309 18.832031 L 308 18.71875 M 328 18.71875 L 329 18.832031 Z M 328 18.71875 "/>
<path style=" stroke:none;fill-rule:nonzero;fill:rgb(57.647059%,86.27451%,96.862745%);fill-opacity:1;" d="M 362 18.71875 L 363 18.832031 L 362 18.71875 M 469 18.71875 L 469 19.054688 L 470 19.054688 L 469 18.71875 M 245.332031 18.90625 L 245.667969 18.980469 Z M 245.332031 18.90625 "/>
<path style=" stroke:none;fill-rule:nonzero;fill:rgb(34.117647%,78.431373%,94.901961%);fill-opacity:1;" d="M 307 18.832031 L 308 18.941406 L 307 18.832031 M 327 18.832031 L 328 18.941406 L 327 18.832031 M 456 18.832031 L 456 19.164062 L 457 19.164062 L 456 18.832031 M 106 18.941406 L 106 19.277344 L 107 19.277344 Z M 106 18.941406 "/>
<path style=" stroke:none;fill-rule:nonzero;fill:rgb(57.647059%,86.27451%,96.862745%);fill-opacity:1;" d="M 219 18.941406 L 219 19.386719 L 220 19.386719 Z M 219 18.941406 "/>
<path style=" stroke:none;fill-rule:nonzero;fill:rgb(34.117647%,78.431373%,94.901961%);fill-opacity:1;" d="M 326 18.941406 L 327 19.054688 Z M 326 18.941406 "/>
<path style=" stroke:none;fill-rule:nonzero;fill:rgb(57.647059%,86.27451%,96.862745%);fill-opacity:1;" d="M 430 18.941406 L 430 19.277344 L 431 19.277344 Z M 430 18.941406 "/>
<path style=" stroke:none;fill-rule:nonzero;fill:rgb(34.117647%,78.431373%,94.901961%);fill-opacity:1;" d="M 245.332031 19.128906 L 245.667969 19.203125 L 245.332031 19.128906 M 325 19.054688 L 326 19.164062 Z M 325 19.054688 "/>
<path style=" stroke:none;fill-rule:nonzero;fill:rgb(57.647059%,86.27451%,96.862745%);fill-opacity:1;" d="M 159 19.164062 L 159 25.625 L 160 25.625 L 160 21.28125 Z M 159 19.164062 "/>
<path style=" stroke:none;fill-rule:nonzero;fill:rgb(34.117647%,78.431373%,94.901961%);fill-opacity:1;" d="M 324 19.164062 L 325 19.277344 Z M 324 19.164062 "/>
<path style=" stroke:none;fill-rule:nonzero;fill:rgb(57.647059%,86.27451%,96.862745%);fill-opacity:1;" d="M 456 19.164062 L 456 20.613281 L 457 20.613281 Z M 456 19.164062 "/>
<path style=" stroke:none;fill-rule:nonzero;fill:rgb(34.117647%,78.431373%,94.901961%);fill-opacity:1;" d="M 323 19.277344 L 324 19.386719 L 323 19.277344 M 430 19.277344 L 430 20.277344 L 431 20.277344 L 430 19.277344 M 582 19.277344 L 582 20.722656 L 583 20.722656 L 582 19.277344 M 322 19.386719 L 323 19.5 L 322 19.386719 M 357 19.386719 L 358 19.5 L 357 19.386719 M 321 19.5 L 322 19.609375 L 321 19.5 M 356 19.5 L 357 19.609375 L 356 19.5 M 320 19.609375 L 321 19.722656 L 320 19.609375 M 355 19.609375 L 356 19.722656 L 355 19.609375 M 468.332031 19.683594 L 468.667969 19.757812 L 468.332031 19.683594 M 319 19.722656 L 320 19.832031 L 319 19.722656 M 354 19.722656 L 355 19.832031 L 354 19.722656 M 318 19.832031 L 319 19.945312 L 318 19.832031 M 353 19.832031 L 354 19.945312 L 353 19.832031 M 317 19.945312 L 318 20.054688 L 317 19.945312 M 352 19.945312 L 353 20.054688 Z M 352 19.945312 "/>
<path style=" stroke:none;fill-rule:nonzero;fill:rgb(57.647059%,86.27451%,96.862745%);fill-opacity:1;" d="M 219 20.054688 L 219 20.5 L 220 20.5 Z M 219 20.054688 "/>
<path style=" stroke:none;fill-rule:nonzero;fill:rgb(34.117647%,78.431373%,94.901961%);fill-opacity:1;" d="M 316 20.054688 L 317 20.167969 L 316 20.054688 M 351 20.054688 L 352 20.167969 L 351 20.054688 M 245.332031 20.242188 L 245.667969 20.316406 L 245.332031 20.242188 M 350 20.167969 L 351 20.277344 L 350 20.167969 M 349 20.277344 L 350 20.390625 Z M 349 20.277344 "/>
<path style=" stroke:none;fill-rule:nonzero;fill:rgb(57.647059%,86.27451%,96.862745%);fill-opacity:1;" d="M 430.332031 20.351562 L 430.667969 20.425781 L 430.332031 20.351562 M 245.332031 20.464844 L 245.667969 20.539062 L 245.332031 20.464844 M 348 20.390625 L 349 20.5 Z M 348 20.390625 "/>
<path style=" stroke:none;fill-rule:nonzero;fill:rgb(34.117647%,78.431373%,94.901961%);fill-opacity:1;" d="M 369 20.390625 L 370 20.5 Z M 369 20.390625 "/>
<path style=" stroke:none;fill-rule:nonzero;fill:rgb(57.647059%,86.27451%,96.862745%);fill-opacity:1;" d="M 469 20.390625 L 469 20.835938 L 470 20.835938 Z M 469 20.390625 "/>
<path style=" stroke:none;fill-rule:nonzero;fill:rgb(34.117647%,78.431373%,94.901961%);fill-opacity:1;" d="M 219 20.5 L 219 20.835938 L 220 20.835938 Z M 219 20.5 "/>
<path style=" stroke:none;fill-rule:nonzero;fill:rgb(57.647059%,86.27451%,96.862745%);fill-opacity:1;" d="M 347 20.5 L 348 20.613281 L 347 20.5 M 368.667969 20.539062 L 369.332031 20.574219 L 368.667969 20.539062 M 346 20.613281 L 347 20.722656 Z M 346 20.613281 "/>
<path style=" stroke:none;fill-rule:nonzero;fill:rgb(34.117647%,78.431373%,94.901961%);fill-opacity:1;" d="M 367 20.613281 L 368 20.722656 L 367 20.613281 M 456.332031 20.6875 L 456.667969 20.761719 Z M 456.332031 20.6875 "/>
<path style=" stroke:none;fill-rule:nonzero;fill:rgb(57.647059%,86.27451%,96.862745%);fill-opacity:1;" d="M 345 20.722656 L 346 20.835938 Z M 345 20.722656 "/>
<path style=" stroke:none;fill-rule:nonzero;fill:rgb(34.117647%,78.431373%,94.901961%);fill-opacity:1;" d="M 366 20.722656 L 367 20.835938 L 366 20.722656 M 370.332031 20.796875 L 370.667969 20.871094 L 370.332031 20.796875 M 429 20.722656 L 430 20.835938 L 429 20.722656 M 496 21.058594 L 497 21.058594 C 502.589844 20.585938 514.171875 20.835938 521 20.835938 L 582 20.835938 C 577.390625 20.539062 568.398438 20.722656 563 20.722656 L 515 20.722656 C 510.328125 20.722656 497.148438 20.460938 496 21.058594 M 246 20.835938 L 247 20.945312 L 246 20.835938 M 365 20.835938 L 366 20.945312 Z M 365 20.835938 "/>
<path style=" stroke:none;fill-rule:nonzero;fill:rgb(57.647059%,86.27451%,96.862745%);fill-opacity:1;" d="M 429 20.835938 L 430 20.945312 Z M 429 20.835938 "/>
<path style=" stroke:none;fill-rule:nonzero;fill:rgb(34.117647%,78.431373%,94.901961%);fill-opacity:1;" d="M 469 20.835938 L 470 20.945312 Z M 469 20.835938 "/>
<path style=" stroke:none;fill-rule:nonzero;fill:rgb(57.647059%,86.27451%,96.862745%);fill-opacity:1;" d="M 246 20.945312 L 247 21.058594 Z M 246 20.945312 "/>
<path style=" stroke:none;fill-rule:nonzero;fill:rgb(34.117647%,78.431373%,94.901961%);fill-opacity:1;" d="M 364 20.945312 L 365 21.058594 Z M 364 20.945312 "/>
<path style=" stroke:none;fill-rule:nonzero;fill:rgb(57.647059%,86.27451%,96.862745%);fill-opacity:1;" d="M 220 21.058594 L 221 21.167969 Z M 220 21.058594 "/>
<path style=" stroke:none;fill-rule:nonzero;fill:rgb(34.117647%,78.431373%,94.901961%);fill-opacity:1;" d="M 363 21.058594 L 364 21.167969 L 363 21.058594 M 428 21.058594 L 429 21.167969 Z M 428 21.058594 "/>
<path style=" stroke:none;fill-rule:nonzero;fill:rgb(57.647059%,86.27451%,96.862745%);fill-opacity:1;" d="M 455.332031 21.132812 L 455.667969 21.207031 Z M 455.332031 21.132812 "/>
<path style=" stroke:none;fill-rule:nonzero;fill:rgb(34.117647%,78.431373%,94.901961%);fill-opacity:1;" d="M 220.332031 21.246094 L 220.667969 21.320312 L 220.332031 21.246094 M 247 21.167969 L 248 21.28125 Z M 247 21.167969 "/>
<path style=" stroke:none;fill-rule:nonzero;fill:rgb(57.647059%,86.27451%,96.862745%);fill-opacity:1;" d="M 307 21.167969 L 308 21.28125 Z M 307 21.167969 "/>
<path style=" stroke:none;fill-rule:nonzero;fill:rgb(34.117647%,78.431373%,94.901961%);fill-opacity:1;" d="M 362 21.167969 L 363 21.28125 Z M 362 21.167969 "/>
<path style=" stroke:none;fill-rule:nonzero;fill:rgb(57.647059%,86.27451%,96.862745%);fill-opacity:1;" d="M 371 21.167969 L 372 21.28125 L 371 21.167969 M 428 21.167969 L 429 21.28125 L 428 21.167969 M 470.332031 21.246094 L 470.667969 21.320312 L 470.332031 21.246094 M 306 21.28125 L 307 21.394531 Z M 306 21.28125 "/>
<path style=" stroke:none;fill-rule:nonzero;fill:rgb(34.117647%,78.431373%,94.901961%);fill-opacity:1;" d="M 341 21.28125 L 342 21.394531 L 341 21.28125 M 361 21.28125 L 362 21.394531 L 361 21.28125 M 455.332031 21.355469 L 455.667969 21.429688 Z M 455.332031 21.355469 "/>
<path style=" stroke:none;fill-rule:nonzero;fill:rgb(57.647059%,86.27451%,96.862745%);fill-opacity:1;" d="M 497 21.28125 L 498 21.394531 Z M 497 21.28125 "/>
<path style=" stroke:none;fill-rule:nonzero;fill:rgb(34.117647%,78.431373%,94.901961%);fill-opacity:1;" d="M 248 21.394531 L 249 21.503906 Z M 248 21.394531 "/>
<path style=" stroke:none;fill-rule:nonzero;fill:rgb(57.647059%,86.27451%,96.862745%);fill-opacity:1;" d="M 305 21.394531 L 306 21.503906 Z M 305 21.394531 "/>
<path style=" stroke:none;fill-rule:nonzero;fill:rgb(34.117647%,78.431373%,94.901961%);fill-opacity:1;" d="M 340 21.394531 L 341 21.503906 L 340 21.394531 M 372 21.394531 L 373 21.503906 Z M 372 21.394531 "/>
<path style=" stroke:none;fill-rule:nonzero;fill:rgb(57.647059%,86.27451%,96.862745%);fill-opacity:1;" d="M 427 21.394531 L 428 21.503906 Z M 427 21.394531 "/>
<path style=" stroke:none;fill-rule:nonzero;fill:rgb(34.117647%,78.431373%,94.901961%);fill-opacity:1;" d="M 470 21.394531 L 471 21.503906 Z M 470 21.394531 "/>
<path style=" stroke:none;fill-rule:nonzero;fill:rgb(57.647059%,86.27451%,96.862745%);fill-opacity:1;" d="M 304 21.503906 L 305 21.617188 Z M 304 21.503906 "/>
<path style=" stroke:none;fill-rule:nonzero;fill:rgb(34.117647%,78.431373%,94.901961%);fill-opacity:1;" d="M 339 21.503906 L 340 21.617188 L 339 21.503906 M 498 21.503906 L 499 21.617188 L 498 21.503906 M 221 21.617188 L 222 21.726562 L 221 21.617188 M 249 21.617188 L 250 21.726562 Z M 249 21.617188 "/>
<path style=" stroke:none;fill-rule:nonzero;fill:rgb(57.647059%,86.27451%,96.862745%);fill-opacity:1;" d="M 303 21.617188 L 304 21.726562 Z M 303 21.617188 "/>
<path style=" stroke:none;fill-rule:nonzero;fill:rgb(34.117647%,78.431373%,94.901961%);fill-opacity:1;" d="M 338 21.617188 L 339 21.726562 L 338 21.617188 M 373 21.617188 L 374 21.726562 Z M 373 21.617188 "/>
<path style=" stroke:none;fill-rule:nonzero;fill:rgb(57.647059%,86.27451%,96.862745%);fill-opacity:1;" d="M 426 21.617188 L 427 21.726562 L 426 21.617188 M 454 21.617188 L 455 21.726562 L 454 21.617188 M 471 21.617188 L 472 21.726562 L 471 21.617188 M 302 21.726562 L 303 21.839844 Z M 302 21.726562 "/>
<path style=" stroke:none;fill-rule:nonzero;fill:rgb(34.117647%,78.431373%,94.901961%);fill-opacity:1;" d="M 337 21.726562 L 338 21.839844 L 337 21.726562 M 425 21.726562 L 426 21.839844 L 425 21.726562 M 454.332031 21.800781 L 454.667969 21.875 L 454.332031 21.800781 M 471 21.726562 L 472 21.839844 L 471 21.726562 M 499 21.726562 L 500 21.839844 Z M 499 21.726562 "/>
<path style=" stroke:none;fill-rule:nonzero;fill:rgb(57.647059%,86.27451%,96.862745%);fill-opacity:1;" d="M 250 21.839844 L 251 21.949219 L 250 21.839844 M 301 21.839844 L 302 21.949219 Z M 301 21.839844 "/>
<path style=" stroke:none;fill-rule:nonzero;fill:rgb(34.117647%,78.431373%,94.901961%);fill-opacity:1;" d="M 336 21.839844 L 337 21.949219 Z M 336 21.839844 "/>
<path style=" stroke:none;fill-rule:nonzero;fill:rgb(57.647059%,86.27451%,96.862745%);fill-opacity:1;" d="M 357 21.839844 L 358 21.949219 L 357 21.839844 M 374 21.839844 L 375 21.949219 Z M 374 21.839844 "/>
<path style=" stroke:none;fill-rule:nonzero;fill:rgb(34.117647%,78.431373%,94.901961%);fill-opacity:1;" d="M 222 21.949219 L 223 22.0625 L 222 21.949219 M 251 21.949219 L 252 22.0625 Z M 251 21.949219 "/>
<path style=" stroke:none;fill-rule:nonzero;fill:rgb(57.647059%,86.27451%,96.862745%);fill-opacity:1;" d="M 300 21.949219 L 301 22.0625 Z M 300 21.949219 "/>
<path style=" stroke:none;fill-rule:nonzero;fill:rgb(34.117647%,78.431373%,94.901961%);fill-opacity:1;" d="M 335 21.949219 L 336 22.0625 Z M 335 21.949219 "/>
<path style=" stroke:none;fill-rule:nonzero;fill:rgb(57.647059%,86.27451%,96.862745%);fill-opacity:1;" d="M 356 21.949219 L 357 22.0625 Z M 356 21.949219 "/>
<path style=" stroke:none;fill-rule:nonzero;fill:rgb(34.117647%,78.431373%,94.901961%);fill-opacity:1;" d="M 375 21.949219 L 376 22.0625 Z M 375 21.949219 "/>
<path style=" stroke:none;fill-rule:nonzero;fill:rgb(57.647059%,86.27451%,96.862745%);fill-opacity:1;" d="M 424 21.949219 L 425 22.0625 L 424 21.949219 M 472 21.949219 L 473 22.0625 L 472 21.949219 M 500 21.949219 L 501 22.0625 Z M 500 21.949219 "/>
<path style=" stroke:none;fill-rule:nonzero;fill:rgb(34.117647%,78.431373%,94.901961%);fill-opacity:1;" d="M 252 22.0625 L 253 22.171875 Z M 252 22.0625 "/>
<path style=" stroke:none;fill-rule:nonzero;fill:rgb(57.647059%,86.27451%,96.862745%);fill-opacity:1;" d="M 299 22.0625 L 300 22.171875 Z M 299 22.0625 "/>
<path style=" stroke:none;fill-rule:nonzero;fill:rgb(34.117647%,78.431373%,94.901961%);fill-opacity:1;" d="M 334 22.0625 L 335 22.171875 Z M 334 22.0625 "/>
<path style=" stroke:none;fill-rule:nonzero;fill:rgb(57.647059%,86.27451%,96.862745%);fill-opacity:1;" d="M 355 22.0625 L 356 22.171875 Z M 355 22.0625 "/>
<path style=" stroke:none;fill-rule:nonzero;fill:rgb(34.117647%,78.431373%,94.901961%);fill-opacity:1;" d="M 376 22.0625 L 377 22.171875 L 376 22.0625 M 423 22.0625 L 424 22.171875 Z M 423 22.0625 "/>
<path style=" stroke:none;fill-rule:nonzero;fill:rgb(57.647059%,86.27451%,96.862745%);fill-opacity:1;" d="M 453 22.0625 L 454 22.171875 Z M 453 22.0625 "/>
<path style=" stroke:none;fill-rule:nonzero;fill:rgb(34.117647%,78.431373%,94.901961%);fill-opacity:1;" d="M 472 22.0625 L 473 22.171875 L 472 22.0625 M 501 22.0625 L 502 22.171875 Z M 501 22.0625 "/>
<path style=" stroke:none;fill-rule:nonzero;fill:rgb(57.647059%,86.27451%,96.862745%);fill-opacity:1;" d="M 223 22.171875 L 224 22.285156 Z M 223 22.171875 "/>
<path style=" stroke:none;fill-rule:nonzero;fill:rgb(34.117647%,78.431373%,94.901961%);fill-opacity:1;" d="M 253 22.171875 L 254 22.285156 Z M 253 22.171875 "/>
<path style=" stroke:none;fill-rule:nonzero;fill:rgb(57.647059%,86.27451%,96.862745%);fill-opacity:1;" d="M 298 22.171875 L 299 22.285156 L 298 22.171875 M 333 22.171875 L 334 22.285156 L 333 22.171875 M 354 22.171875 L 355 22.285156 Z M 354 22.171875 "/>
<path style=" stroke:none;fill-rule:nonzero;fill:rgb(34.117647%,78.431373%,94.901961%);fill-opacity:1;" d="M 377 22.171875 L 378 22.285156 L 377 22.171875 M 422 22.171875 L 423 22.285156 L 422 22.171875 M 502 22.171875 L 503 22.285156 L 502 22.171875 M 223 22.285156 L 224 22.394531 L 223 22.285156 M 254 22.285156 L 255 22.394531 Z M 254 22.285156 "/>
<path style=" stroke:none;fill-rule:nonzero;fill:rgb(57.647059%,86.27451%,96.862745%);fill-opacity:1;" d="M 297 22.285156 L 298 22.394531 L 297 22.285156 M 332 22.285156 L 333 22.394531 Z M 332 22.285156 "/>
<path style=" stroke:none;fill-rule:nonzero;fill:rgb(34.117647%,78.431373%,94.901961%);fill-opacity:1;" d="M 353 22.285156 L 354 22.394531 L 353 22.285156 M 378 22.285156 L 379 22.394531 L 378 22.285156 M 421 22.285156 L 422 22.394531 Z M 421 22.285156 "/>
<path style=" stroke:none;fill-rule:nonzero;fill:rgb(57.647059%,86.27451%,96.862745%);fill-opacity:1;" d="M 473 22.285156 L 474 22.394531 Z M 473 22.285156 "/>
<path style=" stroke:none;fill-rule:nonzero;fill:rgb(34.117647%,78.431373%,94.901961%);fill-opacity:1;" d="M 503 22.285156 L 504 22.394531 L 503 22.285156 M 255 22.394531 L 256 22.507812 Z M 255 22.394531 "/>
<path style=" stroke:none;fill-rule:nonzero;fill:rgb(57.647059%,86.27451%,96.862745%);fill-opacity:1;" d="M 331 22.394531 L 332 22.507812 Z M 331 22.394531 "/>
<path style=" stroke:none;fill-rule:nonzero;fill:rgb(34.117647%,78.431373%,94.901961%);fill-opacity:1;" d="M 352 22.394531 L 353 22.507812 L 352 22.394531 M 379 22.394531 L 380 22.507812 L 379 22.394531 M 420 22.394531 L 421 22.507812 L 420 22.394531 M 452 22.394531 L 453 22.507812 L 452 22.394531 M 504 22.394531 L 505 22.507812 L 504 22.394531 M 548 22.394531 L 549 22.507812 Z M 548 22.394531 "/>
<path style=" stroke:none;fill-rule:nonzero;fill:rgb(57.647059%,86.27451%,96.862745%);fill-opacity:1;" d="M 549 22.394531 L 549 22.507812 L 577 22.617188 C 572.652344 22.0625 555.46875 22.394531 549 22.394531 Z M 549 22.394531 "/>
<path style=" stroke:none;fill-rule:nonzero;fill:rgb(34.117647%,78.431373%,94.901961%);fill-opacity:1;" d="M 224 22.507812 L 225 22.617188 L 224 22.507812 M 256 22.507812 L 257 22.617188 L 256 22.507812 M 294 22.507812 L 295 22.617188 Z M 294 22.507812 "/>
<path style=" stroke:none;fill-rule:nonzero;fill:rgb(57.647059%,86.27451%,96.862745%);fill-opacity:1;" d="M 330 22.507812 L 331 22.617188 Z M 330 22.507812 "/>
<path style=" stroke:none;fill-rule:nonzero;fill:rgb(34.117647%,78.431373%,94.901961%);fill-opacity:1;" d="M 351 22.507812 L 352 22.617188 L 351 22.507812 M 380 22.507812 L 381 22.617188 Z M 380 22.507812 "/>
<path style=" stroke:none;fill-rule:nonzero;fill:rgb(57.647059%,86.27451%,96.862745%);fill-opacity:1;" d="M 419 22.507812 L 420 22.617188 L 419 22.507812 M 474 22.507812 L 475 22.617188 Z M 474 22.507812 "/>
<path style=" stroke:none;fill-rule:nonzero;fill:rgb(34.117647%,78.431373%,94.901961%);fill-opacity:1;" d="M 505 22.507812 L 506 22.617188 L 505 22.507812 M 547 22.507812 L 548 22.617188 Z M 547 22.507812 "/>
<path style=" stroke:none;fill-rule:nonzero;fill:rgb(57.647059%,86.27451%,96.862745%);fill-opacity:1;" d="M 257 22.617188 L 258 22.730469 L 257 22.617188 M 293 22.617188 L 294 22.730469 Z M 293 22.617188 "/>
<path style=" stroke:none;fill-rule:nonzero;fill:rgb(34.117647%,78.431373%,94.901961%);fill-opacity:1;" d="M 350 22.617188 L 351 22.730469 Z M 350 22.617188 "/>
<path style=" stroke:none;fill-rule:nonzero;fill:rgb(57.647059%,86.27451%,96.862745%);fill-opacity:1;" d="M 381 22.617188 L 382 22.730469 Z M 381 22.617188 "/>
<path style=" stroke:none;fill-rule:nonzero;fill:rgb(34.117647%,78.431373%,94.901961%);fill-opacity:1;" d="M 417 22.617188 L 418 22.730469 Z M 417 22.617188 "/>
<path style=" stroke:none;fill-rule:nonzero;fill:rgb(57.647059%,86.27451%,96.862745%);fill-opacity:1;" d="M 451 22.617188 L 452 22.730469 L 451 22.617188 M 506 22.617188 L 507 22.730469 Z M 506 22.617188 "/>
<path style=" stroke:none;fill-rule:nonzero;fill:rgb(34.117647%,78.431373%,94.901961%);fill-opacity:1;" d="M 546 22.617188 L 547 22.730469 L 546 22.617188 M 225 22.730469 L 226 22.839844 L 225 22.730469 M 259 22.730469 L 260 22.839844 L 259 22.730469 M 291 22.730469 L 292 22.839844 L 291 22.730469 M 349 22.730469 L 350 22.839844 L 349 22.730469 M 383 22.730469 L 384 22.839844 Z M 383 22.730469 "/>
<path style=" stroke:none;fill-rule:nonzero;fill:rgb(57.647059%,86.27451%,96.862745%);fill-opacity:1;" d="M 416 22.730469 L 417 22.839844 L 416 22.730469 M 475 22.730469 L 476 22.839844 L 475 22.730469 M 507 22.730469 L 508 22.839844 L 507 22.730469 M 545 22.730469 L 546 22.839844 L 545 22.730469 M 575 22.730469 L 576 22.839844 Z M 575 22.730469 "/>
<path style=" stroke:none;fill-rule:nonzero;fill:rgb(34.117647%,78.431373%,94.901961%);fill-opacity:1;" d="M 261 22.839844 L 262 22.953125 L 261 22.839844 M 289 22.839844 L 290 22.953125 L 289 22.839844 M 348 22.839844 L 349 22.953125 L 348 22.839844 M 385 22.839844 L 386 22.953125 Z M 385 22.839844 "/>
<path style=" stroke:none;fill-rule:nonzero;fill:rgb(57.647059%,86.27451%,96.862745%);fill-opacity:1;" d="M 414 22.839844 L 415 22.953125 L 414 22.839844 M 450 22.839844 L 451 22.953125 L 450 22.839844 M 509 22.839844 L 510 22.953125 L 509 22.839844 M 543 22.839844 L 544 22.953125 Z M 543 22.839844 "/>
<path style=" stroke:none;fill-rule:nonzero;fill:rgb(0.392157%,67.843137%,93.72549%);fill-opacity:1;" d="M 226 22.953125 L 227 23.0625 Z M 226 22.953125 "/>
<path style=" stroke:none;fill-rule:nonzero;fill:rgb(34.117647%,78.431373%,94.901961%);fill-opacity:1;" d="M 263 22.953125 L 264 23.0625 Z M 263 22.953125 "/>
<path style=" stroke:none;fill-rule:nonzero;fill:rgb(57.647059%,86.27451%,96.862745%);fill-opacity:1;" d="M 287 22.953125 L 288 23.0625 Z M 287 22.953125 "/>
<path style=" stroke:none;fill-rule:nonzero;fill:rgb(34.117647%,78.431373%,94.901961%);fill-opacity:1;" d="M 387 22.953125 L 388 23.0625 Z M 387 22.953125 "/>
<path style=" stroke:none;fill-rule:nonzero;fill:rgb(57.647059%,86.27451%,96.862745%);fill-opacity:1;" d="M 412 22.953125 L 413 23.0625 L 412 22.953125 M 476 22.953125 L 477 23.0625 L 476 22.953125 M 511 22.953125 L 512 23.0625 Z M 511 22.953125 "/>
<path style=" stroke:none;fill-rule:nonzero;fill:rgb(34.117647%,78.431373%,94.901961%);fill-opacity:1;" d="M 541 22.953125 L 542 23.0625 Z M 541 22.953125 "/>
<path style=" stroke:none;fill-rule:nonzero;fill:rgb(57.647059%,86.27451%,96.862745%);fill-opacity:1;" d="M 574 22.953125 L 575 23.0625 L 574 22.953125 M 227 23.0625 L 228 23.175781 L 227 23.0625 M 265 23.0625 L 266 23.175781 Z M 265 23.0625 "/>
<path style=" stroke:none;fill-rule:nonzero;fill:rgb(34.117647%,78.431373%,94.901961%);fill-opacity:1;" d="M 266.667969 23.101562 L 267.332031 23.136719 L 266.667969 23.101562 M 284 23.0625 L 285 23.175781 Z M 284 23.0625 "/>
<path style=" stroke:none;fill-rule:nonzero;fill:rgb(57.647059%,86.27451%,96.862745%);fill-opacity:1;" d="M 285 23.0625 L 286 23.175781 Z M 285 23.0625 "/>
<path style=" stroke:none;fill-rule:nonzero;fill:rgb(34.117647%,78.431373%,94.901961%);fill-opacity:1;" d="M 326 23.0625 L 327 23.175781 Z M 326 23.0625 "/>
<path style=" stroke:none;fill-rule:nonzero;fill:rgb(57.647059%,86.27451%,96.862745%);fill-opacity:1;" d="M 389 23.0625 L 390 23.175781 Z M 389 23.0625 "/>
<path style=" stroke:none;fill-rule:nonzero;fill:rgb(34.117647%,78.431373%,94.901961%);fill-opacity:1;" d="M 390 23.0625 L 391 23.175781 L 390 23.0625 M 408 23.0625 L 409 23.175781 Z M 408 23.0625 "/>
<path style=" stroke:none;fill-rule:nonzero;fill:rgb(57.647059%,86.27451%,96.862745%);fill-opacity:1;" d="M 409 23.0625 L 410 23.175781 Z M 409 23.0625 "/>
<path style=" stroke:none;fill-rule:nonzero;fill:rgb(34.117647%,78.431373%,94.901961%);fill-opacity:1;" d="M 449 23.0625 L 450 23.175781 Z M 449 23.0625 "/>
<path style=" stroke:none;fill-rule:nonzero;fill:rgb(57.647059%,86.27451%,96.862745%);fill-opacity:1;" d="M 513 23.0625 L 514 23.175781 Z M 513 23.0625 "/>
<path style=" stroke:none;fill-rule:nonzero;fill:rgb(34.117647%,78.431373%,94.901961%);fill-opacity:1;" d="M 514 23.0625 L 515 23.175781 L 514 23.0625 M 538 23.0625 L 539 23.175781 Z M 538 23.0625 "/>
<path style=" stroke:none;fill-rule:nonzero;fill:rgb(57.647059%,86.27451%,96.862745%);fill-opacity:1;" d="M 539 23.0625 L 540 23.175781 L 539 23.0625 M 269 23.175781 L 269 23.285156 L 272 23.285156 Z M 269 23.175781 "/>
<path style=" stroke:none;fill-rule:nonzero;fill:rgb(34.117647%,78.431373%,94.901961%);fill-opacity:1;" d="M 272 23.175781 L 272 23.285156 L 280 23.285156 Z M 272 23.175781 "/>
<path style=" stroke:none;fill-rule:nonzero;fill:rgb(57.647059%,86.27451%,96.862745%);fill-opacity:1;" d="M 280.667969 23.210938 L 281.332031 23.25 Z M 280.667969 23.210938 "/>
<path style=" stroke:none;fill-rule:nonzero;fill:rgb(34.117647%,78.431373%,94.901961%);fill-opacity:1;" d="M 325 23.175781 L 326 23.285156 Z M 325 23.175781 "/>
<path style=" stroke:none;fill-rule:nonzero;fill:rgb(57.647059%,86.27451%,96.862745%);fill-opacity:1;" d="M 393.667969 23.210938 L 394.332031 23.25 Z M 393.667969 23.210938 "/>
<path style=" stroke:none;fill-rule:nonzero;fill:rgb(34.117647%,78.431373%,94.901961%);fill-opacity:1;" d="M 395 23.175781 L 395 23.285156 L 404 23.285156 Z M 395 23.175781 "/>
<path style=" stroke:none;fill-rule:nonzero;fill:rgb(57.647059%,86.27451%,96.862745%);fill-opacity:1;" d="M 404 23.175781 L 404 23.285156 L 407 23.285156 Z M 404 23.175781 "/>
<path style=" stroke:none;fill-rule:nonzero;fill:rgb(34.117647%,78.431373%,94.901961%);fill-opacity:1;" d="M 477 23.175781 L 478 23.285156 Z M 477 23.175781 "/>
<path style=" stroke:none;fill-rule:nonzero;fill:rgb(57.647059%,86.27451%,96.862745%);fill-opacity:1;" d="M 516 23.175781 L 517 23.285156 Z M 516 23.175781 "/>
<path style=" stroke:none;fill-rule:nonzero;fill:rgb(34.117647%,78.431373%,94.901961%);fill-opacity:1;" d="M 517.667969 23.210938 L 518.332031 23.25 L 517.667969 23.210938 M 534 23.175781 L 535 23.285156 Z M 534 23.175781 "/>
<path style=" stroke:none;fill-rule:nonzero;fill:rgb(57.647059%,86.27451%,96.862745%);fill-opacity:1;" d="M 535.667969 23.210938 L 536.332031 23.25 Z M 535.667969 23.210938 "/>
<path style=" stroke:none;fill-rule:nonzero;fill:rgb(34.117647%,78.431373%,94.901961%);fill-opacity:1;" d="M 573 23.175781 L 574 23.285156 L 573 23.175781 M 228 23.285156 L 229 23.398438 L 228 23.285156 M 324 23.285156 L 325 23.398438 L 324 23.285156 M 448 23.285156 L 449 23.398438 Z M 448 23.285156 "/>
<path style=" stroke:none;fill-rule:nonzero;fill:rgb(57.647059%,86.27451%,96.862745%);fill-opacity:1;" d="M 478 23.285156 L 479 23.398438 L 478 23.285156 M 521 23.285156 L 521 23.398438 L 532 23.398438 L 521 23.285156 M 572 23.285156 L 573 23.398438 L 572 23.285156 M 229 23.398438 L 230 23.507812 Z M 229 23.398438 "/>
<path style=" stroke:none;fill-rule:nonzero;fill:rgb(34.117647%,78.431373%,94.901961%);fill-opacity:1;" d="M 323 23.398438 L 324 23.507812 Z M 323 23.398438 "/>
<path style=" stroke:none;fill-rule:nonzero;fill:rgb(57.647059%,86.27451%,96.862745%);fill-opacity:1;" d="M 344 23.398438 L 345 23.507812 L 344 23.398438 M 447 23.398438 L 448 23.507812 Z M 447 23.398438 "/>
<path style=" stroke:none;fill-rule:nonzero;fill:rgb(34.117647%,78.431373%,94.901961%);fill-opacity:1;" d="M 322 23.507812 L 323 23.621094 Z M 322 23.507812 "/>
<path style=" stroke:none;fill-rule:nonzero;fill:rgb(57.647059%,86.27451%,96.862745%);fill-opacity:1;" d="M 343 23.507812 L 343 30.640625 L 344 30.640625 L 344 25.738281 Z M 343 23.507812 "/>
<path style=" stroke:none;fill-rule:nonzero;fill:rgb(34.117647%,78.431373%,94.901961%);fill-opacity:1;" d="M 479 23.507812 L 480 23.621094 L 479 23.507812 M 571 23.507812 L 572 23.621094 L 571 23.507812 M 321 23.621094 L 322 23.734375 L 321 23.621094 M 480 23.621094 L 481 23.734375 Z M 480 23.621094 "/>
<path style=" stroke:none;fill-rule:nonzero;fill:rgb(57.647059%,86.27451%,96.862745%);fill-opacity:1;" d="M 570 23.621094 L 571 23.734375 Z M 570 23.621094 "/>
<path style=" stroke:none;fill-rule:nonzero;fill:rgb(34.117647%,78.431373%,94.901961%);fill-opacity:1;" d="M 231 23.734375 L 232 23.84375 L 231 23.734375 M 320 23.734375 L 321 23.84375 L 320 23.734375 M 445 23.734375 L 446 23.84375 Z M 445 23.734375 "/>
<path style=" stroke:none;fill-rule:nonzero;fill:rgb(57.647059%,86.27451%,96.862745%);fill-opacity:1;" d="M 481 23.734375 L 482 23.84375 L 481 23.734375 M 569 23.734375 L 570 23.84375 Z M 569 23.734375 "/>
<path style=" stroke:none;fill-rule:nonzero;fill:rgb(34.117647%,78.431373%,94.901961%);fill-opacity:1;" d="M 232 23.84375 L 233 23.957031 L 232 23.84375 M 319 23.84375 L 320 23.957031 Z M 319 23.84375 "/>
<path style=" stroke:none;fill-rule:nonzero;fill:rgb(57.647059%,86.27451%,96.862745%);fill-opacity:1;" d="M 444 23.84375 L 445 23.957031 L 444 23.84375 M 482 23.84375 L 483 23.957031 L 482 23.84375 M 233 23.957031 L 234 24.066406 L 233 23.957031 M 318 23.957031 L 319 24.066406 L 318 23.957031 M 369 23.957031 L 370 24.066406 L 369 23.957031 M 443 23.957031 L 444 24.066406 L 443 23.957031 M 483 23.957031 L 484 24.066406 L 483 23.957031 M 234 24.066406 L 235 24.179688 L 234 24.066406 M 317 24.066406 L 318 24.179688 L 317 24.066406 M 442 24.066406 L 443 24.179688 Z M 442 24.066406 "/>
<path style=" stroke:none;fill-rule:nonzero;fill:rgb(34.117647%,78.431373%,94.901961%);fill-opacity:1;" d="M 567 24.066406 L 568 24.179688 Z M 567 24.066406 "/>
<path style=" stroke:none;fill-rule:nonzero;fill:rgb(57.647059%,86.27451%,96.862745%);fill-opacity:1;" d="M 235 24.179688 L 236 24.289062 L 235 24.179688 M 316 24.179688 L 317 24.289062 Z M 316 24.179688 "/>
<path style=" stroke:none;fill-rule:nonzero;fill:rgb(34.117647%,78.431373%,94.901961%);fill-opacity:1;" d="M 370 24.179688 L 371 24.289062 L 370 24.179688 M 566 24.179688 L 567 24.289062 L 566 24.179688 M 236 24.289062 L 237 24.402344 Z M 236 24.289062 "/>
<path style=" stroke:none;fill-rule:nonzero;fill:rgb(57.647059%,86.27451%,96.862745%);fill-opacity:1;" d="M 315 24.289062 L 316 24.402344 Z M 315 24.289062 "/>
<path style=" stroke:none;fill-rule:nonzero;fill:rgb(34.117647%,78.431373%,94.901961%);fill-opacity:1;" d="M 371 24.289062 L 372 24.402344 Z M 371 24.289062 "/>
<path style=" stroke:none;fill-rule:nonzero;fill:rgb(57.647059%,86.27451%,96.862745%);fill-opacity:1;" d="M 440 24.289062 L 441 24.402344 L 440 24.289062 M 486 24.289062 L 487 24.402344 Z M 486 24.289062 "/>
<path style=" stroke:none;fill-rule:nonzero;fill:rgb(34.117647%,78.431373%,94.901961%);fill-opacity:1;" d="M 565 24.289062 L 566 24.402344 L 565 24.289062 M 237 24.402344 L 238 24.511719 L 237 24.402344 M 314 24.402344 L 315 24.511719 Z M 314 24.402344 "/>
<path style=" stroke:none;fill-rule:nonzero;fill:rgb(57.647059%,86.27451%,96.862745%);fill-opacity:1;" d="M 372 24.402344 L 373 24.511719 L 372 24.402344 M 439 24.402344 L 440 24.511719 L 439 24.402344 M 487 24.402344 L 488 24.511719 Z M 487 24.402344 "/>
<path style=" stroke:none;fill-rule:nonzero;fill:rgb(0.392157%,67.843137%,93.72549%);fill-opacity:1;" d="M 238 24.511719 L 239 24.625 Z M 238 24.511719 "/>
<path style=" stroke:none;fill-rule:nonzero;fill:rgb(34.117647%,78.431373%,94.901961%);fill-opacity:1;" d="M 313 24.511719 L 314 24.625 Z M 313 24.511719 "/>
<path style=" stroke:none;fill-rule:nonzero;fill:rgb(57.647059%,86.27451%,96.862745%);fill-opacity:1;" d="M 373 24.511719 L 374 24.625 L 373 24.511719 M 438 24.511719 L 439 24.625 Z M 438 24.511719 "/>
<path style=" stroke:none;fill-rule:nonzero;fill:rgb(34.117647%,78.431373%,94.901961%);fill-opacity:1;" d="M 488 24.511719 L 489 24.625 Z M 488 24.511719 "/>
<path style=" stroke:none;fill-rule:nonzero;fill:rgb(57.647059%,86.27451%,96.862745%);fill-opacity:1;" d="M 562 24.511719 L 563 24.625 L 562 24.511719 M 374 24.625 L 375 24.734375 Z M 374 24.625 "/>
<path style=" stroke:none;fill-rule:nonzero;fill:rgb(34.117647%,78.431373%,94.901961%);fill-opacity:1;" d="M 437 24.625 L 438 24.734375 L 437 24.625 M 489 24.625 L 490 24.734375 Z M 489 24.625 "/>
<path style=" stroke:none;fill-rule:nonzero;fill:rgb(57.647059%,86.27451%,96.862745%);fill-opacity:1;" d="M 561 24.625 L 562 24.734375 Z M 561 24.625 "/>
<path style=" stroke:none;fill-rule:nonzero;fill:rgb(34.117647%,78.431373%,94.901961%);fill-opacity:1;" d="M 241 24.734375 L 242 24.847656 Z M 241 24.734375 "/>
<path style=" stroke:none;fill-rule:nonzero;fill:rgb(57.647059%,86.27451%,96.862745%);fill-opacity:1;" d="M 310 24.734375 L 311 24.847656 L 310 24.734375 M 375 24.734375 L 376 24.847656 Z M 375 24.734375 "/>
<path style=" stroke:none;fill-rule:nonzero;fill:rgb(34.117647%,78.431373%,94.901961%);fill-opacity:1;" d="M 436 24.734375 L 437 24.847656 Z M 436 24.734375 "/>
<path style=" stroke:none;fill-rule:nonzero;fill:rgb(57.647059%,86.27451%,96.862745%);fill-opacity:1;" d="M 491 24.734375 L 492 24.847656 Z M 491 24.734375 "/>
<path style=" stroke:none;fill-rule:nonzero;fill:rgb(34.117647%,78.431373%,94.901961%);fill-opacity:1;" d="M 560 24.734375 L 561 24.847656 L 560 24.734375 M 309 24.847656 L 310 24.957031 Z M 309 24.847656 "/>
<path style=" stroke:none;fill-rule:nonzero;fill:rgb(57.647059%,86.27451%,96.862745%);fill-opacity:1;" d="M 376 24.847656 L 377 24.957031 L 376 24.847656 M 434 24.847656 L 435 24.957031 Z M 434 24.847656 "/>
<path style=" stroke:none;fill-rule:nonzero;fill:rgb(34.117647%,78.431373%,94.901961%);fill-opacity:1;" d="M 492 24.847656 L 493 24.957031 Z M 492 24.847656 "/>
<path style=" stroke:none;fill-rule:nonzero;fill:rgb(57.647059%,86.27451%,96.862745%);fill-opacity:1;" d="M 558 24.847656 L 559 24.957031 Z M 558 24.847656 "/>
<path style=" stroke:none;fill-rule:nonzero;fill:rgb(34.117647%,78.431373%,94.901961%);fill-opacity:1;" d="M 244 24.957031 L 245 25.070312 Z M 244 24.957031 "/>
<path style=" stroke:none;fill-rule:nonzero;fill:rgb(57.647059%,86.27451%,96.862745%);fill-opacity:1;" d="M 307 24.957031 L 308 25.070312 Z M 307 24.957031 "/>
<path style=" stroke:none;fill-rule:nonzero;fill:rgb(34.117647%,78.431373%,94.901961%);fill-opacity:1;" d="M 377 24.957031 L 378 25.070312 L 377 24.957031 M 433 24.957031 L 434 25.070312 Z M 433 24.957031 "/>
<path style=" stroke:none;fill-rule:nonzero;fill:rgb(57.647059%,86.27451%,96.862745%);fill-opacity:1;" d="M 494 24.957031 L 495 25.070312 Z M 494 24.957031 "/>
<path style=" stroke:none;fill-rule:nonzero;fill:rgb(34.117647%,78.431373%,94.901961%);fill-opacity:1;" d="M 557 24.957031 L 558 25.070312 Z M 557 24.957031 "/>
<path style=" stroke:none;fill-rule:nonzero;fill:rgb(57.647059%,86.27451%,96.862745%);fill-opacity:1;" d="M 246 25.070312 L 247 25.179688 L 246 25.070312 M 305 25.070312 L 306 25.179688 L 305 25.070312 M 379 25.070312 L 380 25.179688 Z M 379 25.070312 "/>
<path style=" stroke:none;fill-rule:nonzero;fill:rgb(34.117647%,78.431373%,94.901961%);fill-opacity:1;" d="M 431 25.070312 L 432 25.179688 L 431 25.070312 M 495 25.070312 L 496 25.179688 Z M 495 25.070312 "/>
<path style=" stroke:none;fill-rule:nonzero;fill:rgb(57.647059%,86.27451%,96.862745%);fill-opacity:1;" d="M 496 25.070312 L 497 25.179688 Z M 496 25.070312 "/>
<path style=" stroke:none;fill-rule:nonzero;fill:rgb(34.117647%,78.431373%,94.901961%);fill-opacity:1;" d="M 555 25.070312 L 556 25.179688 Z M 555 25.070312 "/>
<path style=" stroke:none;fill-rule:nonzero;fill:rgb(57.647059%,86.27451%,96.862745%);fill-opacity:1;" d="M 248 25.179688 L 249 25.292969 L 248 25.179688 M 303 25.179688 L 304 25.292969 Z M 303 25.179688 "/>
<path style=" stroke:none;fill-rule:nonzero;fill:rgb(34.117647%,78.431373%,94.901961%);fill-opacity:1;" d="M 304 25.179688 L 305 25.292969 L 304 25.179688 M 380 25.179688 L 381 25.292969 Z M 380 25.179688 "/>
<path style=" stroke:none;fill-rule:nonzero;fill:rgb(57.647059%,86.27451%,96.862745%);fill-opacity:1;" d="M 429 25.179688 L 430 25.292969 Z M 429 25.179688 "/>
<path style=" stroke:none;fill-rule:nonzero;fill:rgb(34.117647%,78.431373%,94.901961%);fill-opacity:1;" d="M 497 25.179688 L 498 25.292969 Z M 497 25.179688 "/>
<path style=" stroke:none;fill-rule:nonzero;fill:rgb(57.647059%,86.27451%,96.862745%);fill-opacity:1;" d="M 498 25.179688 L 499 25.292969 L 498 25.179688 M 553 25.179688 L 554 25.292969 L 553 25.179688 M 250 25.292969 L 251 25.402344 L 250 25.292969 M 301 25.292969 L 302 25.402344 L 301 25.292969 M 382 25.292969 L 383 25.402344 L 382 25.292969 M 427 25.292969 L 428 25.402344 Z M 427 25.292969 "/>
<path style=" stroke:none;fill-rule:nonzero;fill:rgb(34.117647%,78.431373%,94.901961%);fill-opacity:1;" d="M 499 25.292969 L 500 25.402344 Z M 499 25.292969 "/>
<path style=" stroke:none;fill-rule:nonzero;fill:rgb(57.647059%,86.27451%,96.862745%);fill-opacity:1;" d="M 500 25.292969 L 501 25.402344 L 500 25.292969 M 551 25.292969 L 552 25.402344 Z M 551 25.292969 "/>
<path style=" stroke:none;fill-rule:nonzero;fill:rgb(34.117647%,78.431373%,94.901961%);fill-opacity:1;" d="M 252 25.402344 L 253 25.515625 Z M 252 25.402344 "/>
<path style=" stroke:none;fill-rule:nonzero;fill:rgb(57.647059%,86.27451%,96.862745%);fill-opacity:1;" d="M 299 25.402344 L 300 25.515625 L 299 25.402344 M 384 25.402344 L 385 25.515625 Z M 384 25.402344 "/>
<path style=" stroke:none;fill-rule:nonzero;fill:rgb(34.117647%,78.431373%,94.901961%);fill-opacity:1;" d="M 425 25.402344 L 426 25.515625 Z M 425 25.402344 "/>
<path style=" stroke:none;fill-rule:nonzero;fill:rgb(57.647059%,86.27451%,96.862745%);fill-opacity:1;" d="M 502 25.402344 L 503 25.515625 L 502 25.402344 M 548 25.402344 L 549 25.515625 Z M 548 25.402344 "/>
<path style=" stroke:none;fill-rule:nonzero;fill:rgb(34.117647%,78.431373%,94.901961%);fill-opacity:1;" d="M 549 25.402344 L 550 25.515625 Z M 549 25.402344 "/>
<path style=" stroke:none;fill-rule:nonzero;fill:rgb(57.647059%,86.27451%,96.862745%);fill-opacity:1;" d="M 255 25.515625 L 256 25.625 L 255 25.515625 M 296 25.515625 L 297 25.625 Z M 296 25.515625 "/>
<path style=" stroke:none;fill-rule:nonzero;fill:rgb(34.117647%,78.431373%,94.901961%);fill-opacity:1;" d="M 297 25.515625 L 298 25.625 Z M 297 25.515625 "/>
<path style=" stroke:none;fill-rule:nonzero;fill:rgb(57.647059%,86.27451%,96.862745%);fill-opacity:1;" d="M 386 25.515625 L 387 25.625 L 386 25.515625 M 422 25.515625 L 423 25.625 Z M 422 25.515625 "/>
<path style=" stroke:none;fill-rule:nonzero;fill:rgb(34.117647%,78.431373%,94.901961%);fill-opacity:1;" d="M 423 25.515625 L 424 25.625 L 423 25.515625 M 504 25.515625 L 505 25.625 Z M 504 25.515625 "/>
<path style=" stroke:none;fill-rule:nonzero;fill:rgb(57.647059%,86.27451%,96.862745%);fill-opacity:1;" d="M 505 25.515625 L 506 25.625 Z M 505 25.515625 "/>
<path style=" stroke:none;fill-rule:nonzero;fill:rgb(34.117647%,78.431373%,94.901961%);fill-opacity:1;" d="M 546 25.515625 L 547 25.625 L 546 25.515625 M 258 25.625 L 259 25.738281 Z M 258 25.625 "/>
<path style=" stroke:none;fill-rule:nonzero;fill:rgb(57.647059%,86.27451%,96.862745%);fill-opacity:1;" d="M 259 25.625 L 260 25.738281 L 259 25.625 M 292.667969 25.664062 L 293.332031 25.699219 Z M 292.667969 25.664062 "/>
<path style=" stroke:none;fill-rule:nonzero;fill:rgb(34.117647%,78.431373%,94.901961%);fill-opacity:1;" d="M 294 25.625 L 295 25.738281 L 294 25.625 M 388 25.625 L 389 25.738281 Z M 388 25.625 "/>
<path style=" stroke:none;fill-rule:nonzero;fill:rgb(57.647059%,86.27451%,96.862745%);fill-opacity:1;" d="M 389 25.625 L 390 25.738281 L 389 25.625 M 419 25.625 L 420 25.738281 Z M 419 25.625 "/>
<path style=" stroke:none;fill-rule:nonzero;fill:rgb(34.117647%,78.431373%,94.901961%);fill-opacity:1;" d="M 420 25.625 L 421 25.738281 L 420 25.625 M 507 25.625 L 508 25.738281 Z M 507 25.625 "/>
<path style=" stroke:none;fill-rule:nonzero;fill:rgb(57.647059%,86.27451%,96.862745%);fill-opacity:1;" d="M 508 25.625 L 509 25.738281 L 508 25.625 M 542 25.625 L 543 25.738281 Z M 542 25.625 "/>
<path style=" stroke:none;fill-rule:nonzero;fill:rgb(34.117647%,78.431373%,94.901961%);fill-opacity:1;" d="M 543 25.625 L 544 25.738281 Z M 543 25.625 "/>
<path style=" stroke:none;fill-rule:nonzero;fill:rgb(0.392157%,67.843137%,93.72549%);fill-opacity:1;" d="M 261 25.738281 L 262 25.847656 Z M 261 25.738281 "/>
<path style=" stroke:none;fill-rule:nonzero;fill:rgb(34.117647%,78.431373%,94.901961%);fill-opacity:1;" d="M 262 25.738281 L 263 25.847656 Z M 262 25.738281 "/>
<path style=" stroke:none;fill-rule:nonzero;fill:rgb(57.647059%,86.27451%,96.862745%);fill-opacity:1;" d="M 263 25.738281 L 264 25.847656 L 263 25.738281 M 288.667969 25.773438 L 289.332031 25.8125 Z M 288.667969 25.773438 "/>
<path style=" stroke:none;fill-rule:nonzero;fill:rgb(34.117647%,78.431373%,94.901961%);fill-opacity:1;" d="M 290 25.738281 L 291 25.847656 L 290 25.738281 M 391.667969 25.773438 L 392.332031 25.8125 Z M 391.667969 25.773438 "/>
<path style=" stroke:none;fill-rule:nonzero;fill:rgb(57.647059%,86.27451%,96.862745%);fill-opacity:1;" d="M 393 25.738281 L 394 25.847656 L 393 25.738281 M 415 25.738281 L 416 25.847656 Z M 415 25.738281 "/>
<path style=" stroke:none;fill-rule:nonzero;fill:rgb(34.117647%,78.431373%,94.901961%);fill-opacity:1;" d="M 416 25.738281 L 417 25.847656 L 416 25.738281 M 511 25.738281 L 512 25.847656 Z M 511 25.738281 "/>
<path style=" stroke:none;fill-rule:nonzero;fill:rgb(57.647059%,86.27451%,96.862745%);fill-opacity:1;" d="M 512.667969 25.773438 L 513.332031 25.8125 L 512.667969 25.773438 M 537.667969 25.773438 L 538.332031 25.8125 Z M 537.667969 25.773438 "/>
<path style=" stroke:none;fill-rule:nonzero;fill:rgb(34.117647%,78.431373%,94.901961%);fill-opacity:1;" d="M 539.667969 25.773438 L 540.332031 25.8125 L 539.667969 25.773438 M 267.667969 25.886719 L 268.332031 25.925781 Z M 267.667969 25.886719 "/>
<path style=" stroke:none;fill-rule:nonzero;fill:rgb(57.647059%,86.27451%,96.862745%);fill-opacity:1;" d="M 269 25.847656 L 270 25.960938 Z M 269 25.847656 "/>
<path style=" stroke:none;fill-rule:nonzero;fill:rgb(34.117647%,78.431373%,94.901961%);fill-opacity:1;" d="M 270 25.847656 L 271 25.960938 Z M 270 25.847656 "/>
<path style=" stroke:none;fill-rule:nonzero;fill:rgb(57.647059%,86.27451%,96.862745%);fill-opacity:1;" d="M 271 25.847656 L 271 25.960938 L 283 25.960938 Z M 271 25.847656 "/>
<path style=" stroke:none;fill-rule:nonzero;fill:rgb(34.117647%,78.431373%,94.901961%);fill-opacity:1;" d="M 283 25.847656 L 283 25.960938 L 286 25.960938 L 283 25.847656 M 396.667969 25.886719 L 397.332031 25.925781 Z M 396.667969 25.886719 "/>
<path style=" stroke:none;fill-rule:nonzero;fill:rgb(57.647059%,86.27451%,96.862745%);fill-opacity:1;" d="M 398 25.847656 L 398 25.960938 L 411 25.960938 Z M 398 25.847656 "/>
<path style=" stroke:none;fill-rule:nonzero;fill:rgb(34.117647%,78.431373%,94.901961%);fill-opacity:1;" d="M 411.667969 25.886719 L 412.332031 25.925781 L 411.667969 25.886719 M 516.667969 25.886719 L 517.332031 25.925781 Z M 516.667969 25.886719 "/>
<path style=" stroke:none;fill-rule:nonzero;fill:rgb(57.647059%,86.27451%,96.862745%);fill-opacity:1;" d="M 518 25.847656 L 518 25.960938 L 533 25.960938 Z M 518 25.847656 "/>
<path style=" stroke:none;fill-rule:nonzero;fill:rgb(34.117647%,78.431373%,94.901961%);fill-opacity:1;" d="M 533.667969 25.886719 L 534.332031 25.925781 Z M 533.667969 25.886719 "/>
</g>
</svg>
